<?xml version="1.0" encoding="UTF-8"?><svg xmlns="http://www.w3.org/2000/svg" xmlns:xlink="http://www.w3.org/1999/xlink" fill-opacity="1" color-rendering="auto" color-interpolation="auto" text-rendering="auto" stroke="black" stroke-linecap="square" width="646" stroke-miterlimit="10" shape-rendering="auto" stroke-opacity="1" fill="black" stroke-dasharray="none" font-weight="normal" stroke-width="1" height="205" font-family="'Dialog'" font-style="normal" stroke-linejoin="miter" font-size="12px" stroke-dashoffset="0" image-rendering="auto">
  <!--Generated by ySVG 2.5-->
  <defs id="genericDefs"/>
  <g>
    <defs id="defs1">
      <clipPath clipPathUnits="userSpaceOnUse" id="clipPath1">
        <path d="M0 0 L646 0 L646 205 L0 205 L0 0 Z"/>
      </clipPath>
      <clipPath clipPathUnits="userSpaceOnUse" id="clipPath2">
        <path d="M293 122 L939 122 L939 327 L293 327 L293 122 Z"/>
      </clipPath>
    </defs>
    <g fill="white" text-rendering="geometricPrecision" shape-rendering="geometricPrecision" transform="translate(-293,-122)" stroke="white">
      <rect x="293" width="646" height="205" y="122" clip-path="url(#clipPath2)" stroke="none"/>
    </g>
    <g id="y.node.0">
      <a xlink:href="100-Programas.html">
        <g fill="rgb(153,204,255)" text-rendering="geometricPrecision" shape-rendering="geometricPrecision" transform="matrix(1,0,0,1,-293,-122)" stroke="rgb(153,204,255)">
          <ellipse rx="56.0854" ry="53.6781" cx="547" cy="257.5" stroke="none"/>
        </g>
        <g>
          <g font-size="14px" stroke-linecap="butt" transform="matrix(1,0,0,1,-293,-122)" text-rendering="geometricPrecision" font-family="'DejaVu Serif'" shape-rendering="geometricPrecision" stroke-miterlimit="1.45">
            <text x="515.0146" xml:space="preserve" y="246.0498" stroke="none">Sistemas</text>
          </g>
          <g font-size="14px" stroke-linecap="butt" transform="matrix(1,0,0,1,-293,-122)" text-rendering="geometricPrecision" font-family="'DejaVu Serif'" shape-rendering="geometricPrecision" stroke-miterlimit="1.45">
            <text x="497.4292" xml:space="preserve" y="262.3467" stroke="none">Operativos en</text>
            <text x="533.106" xml:space="preserve" y="278.6436" stroke="none">Red</text>
          </g>
        </g>
      </a>
    </g>
    <g id="y.node.1">
      <a xlink:href="100-Programas.html">
        <g fill="rgb(204,153,255)" text-rendering="geometricPrecision" shape-rendering="geometricPrecision" transform="matrix(1,0,0,1,-293,-122)" stroke="rgb(204,153,255)">
          <rect x="654.9146" y="238.3219" width="268.1709" rx="4" ry="4" height="38.3562" stroke="none"/>
        </g>
        <g>
          <g font-size="14px" stroke-linecap="butt" transform="matrix(1,0,0,1,-293,-122)" text-rendering="geometricPrecision" font-family="'DejaVu Serif'" shape-rendering="geometricPrecision" stroke-miterlimit="1.45">
            <text x="697.5215" xml:space="preserve" y="262.3467" stroke="none">UD1 Instalación de SSOO</text>
          </g>
        </g>
        <g text-rendering="geometricPrecision" stroke-miterlimit="1.45" shape-rendering="geometricPrecision" transform="matrix(1,0,0,1,-293,-122)" stroke-linecap="butt">
          <rect x="654.9146" y="238.3219" fill="none" width="268.1709" rx="4" ry="4" height="38.3562"/>
        </g>
      </a>
    </g>
    <g id="y.node.2">
      <a xlink:href="02-Evaluacion.svg">
        <g fill="rgb(153,204,255)" text-rendering="geometricPrecision" shape-rendering="geometricPrecision" transform="matrix(1,0,0,1,-293,-122)" stroke="rgb(153,204,255)">
          <rect x="490.9146" y="137.161" width="112.1709" rx="4" ry="4" height="26.6781" stroke="none"/>
        </g>
        <g>
          <g font-size="14px" stroke-linecap="butt" transform="matrix(1,0,0,1,-293,-122)" text-rendering="geometricPrecision" font-family="'DejaVu Serif'" shape-rendering="geometricPrecision" stroke-miterlimit="1.45">
            <text x="507.96" xml:space="preserve" y="155.3467" stroke="none">Evaluación</text>
          </g>
        </g>
        <g text-rendering="geometricPrecision" stroke-miterlimit="1.45" stroke-dasharray="6,2" shape-rendering="geometricPrecision" transform="matrix(1,0,0,1,-293,-122)" stroke-linecap="butt">
          <rect x="490.9146" y="137.161" fill="none" width="112.1709" rx="4" ry="4" height="26.6781"/>
        </g>
      </a>
    </g>
    <g id="y.node.3">
      <a xlink:href="02-Evaluacion.svg">
        <g fill="rgb(153,204,255)" text-rendering="geometricPrecision" shape-rendering="geometricPrecision" transform="matrix(1,0,0,1,-293,-122)" stroke="rgb(153,204,255)">
          <rect x="308.8291" y="235.661" width="124.1709" rx="4" ry="4" height="43.6781" stroke="none"/>
        </g>
        <g>
          <g font-size="14px" stroke-linecap="butt" transform="matrix(1,0,0,1,-293,-122)" text-rendering="geometricPrecision" font-family="'DejaVu Serif'" shape-rendering="geometricPrecision" stroke-miterlimit="1.45">
            <text x="321.0396" xml:space="preserve" y="254.1982" stroke="none">Resultados de</text>
            <text x="329.3691" xml:space="preserve" y="270.4951" stroke="none">aprendizaje</text>
          </g>
        </g>
        <g text-rendering="geometricPrecision" stroke-miterlimit="1.45" stroke-dasharray="6,2" shape-rendering="geometricPrecision" transform="matrix(1,0,0,1,-293,-122)" stroke-linecap="butt">
          <rect x="308.8291" y="235.661" fill="none" width="124.1709" rx="4" ry="4" height="43.6781"/>
        </g>
      </a>
    </g>
    <g id="y.edge.0">
      <g stroke-linecap="butt" transform="matrix(1,0,0,1,-293,-122)" fill="rgb(170,170,170)" text-rendering="geometricPrecision" shape-rendering="geometricPrecision" stroke="rgb(170,170,170)" stroke-width="3" stroke-miterlimit="1.45">
        <path fill="none" d="M603.0854 257.5 L641.1246 257.5"/>
        <path d="M654.8746 257.5 L639.8746 250 L639.8746 265 Z" stroke="none"/>
      </g>
    </g>
    <g id="y.edge.1">
      <g stroke-linecap="butt" transform="matrix(1,0,0,1,-293,-122)" fill="rgb(170,170,170)" text-rendering="geometricPrecision" shape-rendering="geometricPrecision" stroke="rgb(170,170,170)" stroke-width="3" stroke-miterlimit="1.45">
        <path fill="none" d="M547 203.8219 L547 177.6065"/>
        <path d="M547 163.8565 L539.5 178.8565 L554.5 178.8565 Z" stroke="none"/>
      </g>
      <g/>
    </g>
    <g id="y.edge.2">
      <g stroke-linecap="butt" transform="matrix(1,0,0,1,-293,-122)" fill="rgb(170,170,170)" text-rendering="geometricPrecision" shape-rendering="geometricPrecision" stroke="rgb(170,170,170)" stroke-width="3" stroke-miterlimit="1.45">
        <path fill="none" d="M490.9146 257.5 L446.7446 257.5"/>
        <path d="M432.9946 257.5 L447.9946 265 L447.9946 250 Z" stroke="none"/>
      </g>
      <g/>
    </g>
  </g>
</svg>
