<?xml version="1.0" encoding="UTF-8"?><svg xmlns="http://www.w3.org/2000/svg" xmlns:xlink="http://www.w3.org/1999/xlink" fill-opacity="1" color-rendering="auto" color-interpolation="auto" text-rendering="auto" stroke="black" stroke-linecap="square" width="1070" stroke-miterlimit="10" shape-rendering="auto" stroke-opacity="1" fill="black" stroke-dasharray="none" font-weight="normal" stroke-width="1" height="571" font-family="'Dialog'" font-style="normal" stroke-linejoin="miter" font-size="12px" stroke-dashoffset="0" image-rendering="auto">
  <!--Generated by ySVG 2.5-->
  <defs id="genericDefs"/>
  <g>
    <defs id="defs1">
      <clipPath clipPathUnits="userSpaceOnUse" id="clipPath1">
        <path d="M0 0 L1070 0 L1070 571 L0 571 L0 0 Z"/>
      </clipPath>
      <clipPath clipPathUnits="userSpaceOnUse" id="clipPath2">
        <path d="M40 -93 L1110 -93 L1110 478 L40 478 L40 -93 Z"/>
      </clipPath>
    </defs>
    <g fill="white" text-rendering="geometricPrecision" shape-rendering="geometricPrecision" transform="translate(-40,93)" stroke="white">
      <rect x="40" width="1070" height="571" y="-93" clip-path="url(#clipPath2)" stroke="none"/>
    </g>
    <g id="y.node.0">
      <g fill="rgb(153,153,153)" text-rendering="geometricPrecision" shape-rendering="geometricPrecision" transform="matrix(1,0,0,1,-40,93)" stroke="rgb(153,153,153)">
        <path d="M861.8281 89.6063 L1079.5176 89.6063 L1079.5176 104.6063 L1094.5176 104.6063 L1094.5176 144.9242 L861.8281 144.9242 Z" stroke="none"/>
      </g>
      <g fill="white" text-rendering="geometricPrecision" shape-rendering="geometricPrecision" transform="matrix(1,0,0,1,-40,93)" stroke="white">
        <path d="M1079.5176 89.6063 L1079.5176 104.6063 L1094.5176 104.6063 Z" stroke="none" fill-rule="evenodd"/>
      </g>
      <g text-rendering="geometricPrecision" stroke-miterlimit="1.45" shape-rendering="geometricPrecision" transform="matrix(1,0,0,1,-40,93)" stroke-linecap="butt">
        <path fill="none" d="M861.8281 89.6063 L1079.5176 89.6063 L1079.5176 104.6063 L1094.5176 104.6063 L1094.5176 144.9242 L861.8281 144.9242 Z"/>
        <path fill="none" d="M1079.5176 89.6063 L1079.5176 104.6063 L1094.5176 104.6063 Z" fill-rule="evenodd"/>
      </g>
      <g>
        <g stroke-linecap="butt" transform="matrix(1,0,0,1,-40,93)" fill="white" text-rendering="geometricPrecision" font-family="sans-serif" shape-rendering="geometricPrecision" stroke="white" stroke-miterlimit="1.45">
          <text x="889.1484" xml:space="preserve" y="114.4352" stroke="none">Las recuperaciones se hacen </text>
          <text x="918.1904" xml:space="preserve" y="128.4039" stroke="none">sobre RA completos</text>
        </g>
      </g>
    </g>
    <g id="y.node.1">
      <a xlink:href="002-RA.html">
        <g fill="rgb(255,153,0)" text-rendering="geometricPrecision" shape-rendering="geometricPrecision" transform="matrix(1,0,0,1,-40,93)" stroke="rgb(255,153,0)">
          <ellipse rx="28.0664" ry="27.4794" cx="552.75" cy="162.5" stroke="none"/>
        </g>
        <g>
          <g font-size="16px" stroke-linecap="butt" transform="matrix(1,0,0,1,-40,93)" text-rendering="geometricPrecision" font-family="'DejaVu Serif Condensed'" shape-rendering="geometricPrecision" font-weight="bold" stroke-miterlimit="1.45">
            <text x="541.1836" xml:space="preserve" y="168.125" stroke="none">RA</text>
          </g>
        </g>
        <g stroke-linecap="butt" transform="matrix(1,0,0,1,-40,93)" fill="gray" text-rendering="geometricPrecision" shape-rendering="geometricPrecision" stroke="gray" stroke-width="3" stroke-miterlimit="1.45">
          <ellipse rx="28.0664" fill="none" ry="27.4794" cx="552.75" cy="162.5"/>
        </g>
      </a>
    </g>
    <g id="y.node.2">
      <g fill="rgb(255,153,0)" text-rendering="geometricPrecision" shape-rendering="geometricPrecision" transform="matrix(1,0,0,1,-40,93)" stroke="rgb(255,153,0)">
        <ellipse rx="27.7148" ry="27.6589" cx="552.75" cy="308.2308" stroke="none"/>
      </g>
      <g>
        <g font-size="16px" stroke-linecap="butt" transform="matrix(1,0,0,1,-40,93)" text-rendering="geometricPrecision" font-family="'DejaVu Serif Condensed'" shape-rendering="geometricPrecision" font-weight="bold" stroke-miterlimit="1.45">
          <text x="541.5352" xml:space="preserve" y="313.8558" stroke="none">CE</text>
        </g>
      </g>
      <g stroke-linecap="butt" transform="matrix(1,0,0,1,-40,93)" fill="gray" text-rendering="geometricPrecision" shape-rendering="geometricPrecision" stroke="gray" stroke-width="3" stroke-miterlimit="1.45">
        <ellipse rx="27.7148" fill="none" ry="27.6589" cx="552.75" cy="308.2308"/>
      </g>
    </g>
    <g id="y.node.3">
      <g fill="rgb(179,166,145)" text-rendering="geometricPrecision" shape-rendering="geometricPrecision" transform="matrix(1,0,0,1,-40,93) translate(5,5)" stroke="rgb(179,166,145)">
        <rect x="479.6123" y="-18.0719" width="146.2754" rx="4" ry="4" height="62.5" stroke="none"/>
      </g>
      <g fill="rgb(102,102,102)" text-rendering="geometricPrecision" shape-rendering="geometricPrecision" transform="matrix(1,0,0,1,-40,93)" stroke="rgb(102,102,102)">
        <rect x="479.6123" y="-18.0719" width="146.2754" rx="4" ry="4" height="62.5" stroke="none"/>
      </g>
      <g>
        <g stroke-linecap="butt" font-size="26px" transform="matrix(1,0,0,1,-40,93)" fill="rgb(255,153,0)" text-rendering="geometricPrecision" font-family="'Liberation Serif'" shape-rendering="geometricPrecision" stroke="rgb(255,153,0)" font-weight="bold" stroke-miterlimit="1.45">
          <text x="497.5" xml:space="preserve" y="8.1063" stroke="none">Nota final</text>
          <text x="490.9873" xml:space="preserve" y="36.8993" stroke="none">del modulo</text>
        </g>
      </g>
    </g>
    <g id="y.node.4">
      <g fill="white" text-rendering="geometricPrecision" shape-rendering="geometricPrecision" transform="matrix(1,0,0,1,-40,93)" stroke="white">
        <rect x="731.1719" y="144.3219" width="100.6562" rx="4" ry="4" height="36.3562" stroke="none"/>
      </g>
      <g>
        <g font-size="16px" stroke-linecap="butt" transform="matrix(1,0,0,1,-40,93)" text-rendering="geometricPrecision" font-family="'DejaVu Serif'" shape-rendering="geometricPrecision" stroke-miterlimit="1.45">
          <text x="738.1719" xml:space="preserve" y="168.0391" stroke="none">porcentaje</text>
        </g>
      </g>
      <g stroke-linecap="butt" transform="matrix(1,0,0,1,-40,93)" fill="rgb(51,51,51)" text-rendering="geometricPrecision" shape-rendering="geometricPrecision" stroke="rgb(51,51,51)" stroke-width="3" stroke-miterlimit="1.45">
        <rect x="731.1719" y="144.3219" fill="none" width="100.6562" rx="4" ry="4" height="36.3562"/>
      </g>
    </g>
    <g id="y.node.5">
      <g fill="rgb(204,255,255)" text-rendering="geometricPrecision" shape-rendering="geometricPrecision" transform="matrix(1,0,0,1,-40,93)" stroke="rgb(204,255,255)">
        <rect x="55.9463" y="125.3799" width="286.3574" rx="4" ry="4" height="74.2401" stroke="none"/>
      </g>
      <g>
        <g font-size="14px" stroke-linecap="butt" transform="matrix(1,0,0,1,-40,93)" text-rendering="geometricPrecision" font-family="sans-serif" shape-rendering="geometricPrecision" font-style="italic" stroke-miterlimit="1.45">
          <text x="70.4282" xml:space="preserve" y="151.0498" stroke="none">Gestiona servidores Web, evaluando</text>
          <text x="62.9463" xml:space="preserve" y="167.3467" stroke="none"> y aplicando criterios de configuración </text>
          <text x="68.374" xml:space="preserve" y="183.6436" stroke="none">para el acceso seguro a los servicios.</text>
        </g>
      </g>
      <g text-rendering="geometricPrecision" stroke-miterlimit="1.45" shape-rendering="geometricPrecision" transform="matrix(1,0,0,1,-40,93)" stroke-linecap="butt">
        <rect x="55.9463" y="125.3799" fill="none" width="286.3574" rx="4" ry="4" height="74.2401"/>
      </g>
    </g>
    <g id="y.node.6">
      <g fill="rgb(204,255,255)" text-rendering="geometricPrecision" shape-rendering="geometricPrecision" transform="matrix(1,0,0,1,-40,93)" stroke="rgb(204,255,255)">
        <rect x="121.645" y="285.5483" width="219.96" rx="4" ry="4" height="45.3651" stroke="none"/>
      </g>
      <g>
        <g font-size="14px" stroke-linecap="butt" transform="matrix(1,0,0,1,-40,93)" text-rendering="geometricPrecision" font-family="sans-serif" shape-rendering="geometricPrecision" font-style="italic" stroke-miterlimit="1.45">
          <text x="128.645" xml:space="preserve" y="304.9291" stroke="none">Se han creado y configurado </text>
          <text x="176.4043" xml:space="preserve" y="321.226" stroke="none">sitios virtuales. </text>
        </g>
      </g>
      <g text-rendering="geometricPrecision" stroke-miterlimit="1.45" shape-rendering="geometricPrecision" transform="matrix(1,0,0,1,-40,93)" stroke-linecap="butt">
        <rect x="121.645" y="285.5483" fill="none" width="219.96" rx="4" ry="4" height="45.3651"/>
      </g>
    </g>
    <g id="y.node.7">
      <g fill="rgb(153,153,153)" text-rendering="geometricPrecision" shape-rendering="geometricPrecision" transform="matrix(1,0,0,1,-40,93)" stroke="rgb(153,153,153)">
        <path d="M780.208 50.9715 L971.4203 50.9715 L971.4203 65.9715 L986.4203 65.9715 L986.4203 96.3366 L780.208 96.3366 Z" stroke="none"/>
        <path fill="white" d="M971.4203 50.9715 L971.4203 65.9715 L986.4203 65.9715 Z" fill-rule="evenodd" stroke="none"/>
      </g>
      <g text-rendering="geometricPrecision" stroke-miterlimit="1.45" shape-rendering="geometricPrecision" transform="matrix(1,0,0,1,-40,93)" stroke-linecap="butt">
        <path fill="none" d="M780.208 50.9715 L971.4203 50.9715 L971.4203 65.9715 L986.4203 65.9715 L986.4203 96.3366 L780.208 96.3366 Z"/>
        <path fill="none" d="M971.4203 50.9715 L971.4203 65.9715 L986.4203 65.9715 Z" fill-rule="evenodd"/>
      </g>
      <g>
        <g stroke-linecap="butt" transform="matrix(1,0,0,1,-40,93)" fill="white" text-rendering="geometricPrecision" font-family="sans-serif" shape-rendering="geometricPrecision" stroke="white" stroke-miterlimit="1.45">
          <text x="797.9284" xml:space="preserve" y="70.8239" stroke="none">La nota se obtiene sumando</text>
          <text x="812.8054" xml:space="preserve" y="84.7927" stroke="none">todos los CE aprobados</text>
        </g>
      </g>
    </g>
    <g id="y.node.8">
      <g fill="rgb(153,153,153)" text-rendering="geometricPrecision" shape-rendering="geometricPrecision" transform="matrix(1,0,0,1,-40,93)" stroke="rgb(153,153,153)">
        <path d="M73.082 -18.0719 L310.168 -18.0719 L310.168 -3.0719 L325.168 -3.0719 L325.168 49.3071 L73.082 49.3071 Z" stroke="none"/>
        <path fill="white" d="M310.168 -18.0719 L310.168 -3.0719 L325.168 -3.0719 Z" fill-rule="evenodd" stroke="none"/>
      </g>
      <g text-rendering="geometricPrecision" stroke-miterlimit="1.45" shape-rendering="geometricPrecision" transform="matrix(1,0,0,1,-40,93)" stroke-linecap="butt">
        <path fill="none" d="M73.082 -18.0719 L310.168 -18.0719 L310.168 -3.0719 L325.168 -3.0719 L325.168 49.3071 L73.082 49.3071 Z"/>
        <path fill="none" d="M310.168 -18.0719 L310.168 -3.0719 L325.168 -3.0719 Z" fill-rule="evenodd"/>
      </g>
      <g>
        <g stroke-linecap="butt" transform="matrix(1,0,0,1,-40,93)" fill="white" text-rendering="geometricPrecision" font-family="sans-serif" shape-rendering="geometricPrecision" stroke="white" stroke-miterlimit="1.45">
          <text x="95.1328" xml:space="preserve" y="-1.1812" stroke="none">Las evaluaciones parciales indican</text>
          <text x="96.2373" xml:space="preserve" y="12.7875" stroke="none">el progreso del alumno en función</text>
          <text x="103.1895" xml:space="preserve" y="26.7563" stroke="none">de los CE y RA impartidos hasta</text>
          <text x="111.9111" xml:space="preserve" y="40.725" stroke="none">el momento de la evaluación</text>
        </g>
      </g>
    </g>
    <g id="y.node.9">
      <g fill="rgb(153,153,153)" text-rendering="geometricPrecision" shape-rendering="geometricPrecision" transform="matrix(1,0,0,1,-40,93)" stroke="rgb(153,153,153)">
        <path d="M673.4785 -77.1438 L891.168 -77.1438 L891.168 -62.1438 L906.168 -62.1438 L906.168 -31.7787 L673.4785 -31.7787 Z" stroke="none"/>
        <path fill="white" d="M891.168 -77.1438 L891.168 -62.1438 L906.168 -62.1438 Z" fill-rule="evenodd" stroke="none"/>
      </g>
      <g text-rendering="geometricPrecision" stroke-miterlimit="1.45" shape-rendering="geometricPrecision" transform="matrix(1,0,0,1,-40,93)" stroke-linecap="butt">
        <path fill="none" d="M673.4785 -77.1438 L891.168 -77.1438 L891.168 -62.1438 L906.168 -62.1438 L906.168 -31.7787 L673.4785 -31.7787 Z"/>
        <path fill="none" d="M891.168 -77.1438 L891.168 -62.1438 L906.168 -62.1438 Z" fill-rule="evenodd"/>
      </g>
      <g>
        <g stroke-linecap="butt" transform="matrix(1,0,0,1,-40,93)" fill="white" text-rendering="geometricPrecision" font-family="sans-serif" shape-rendering="geometricPrecision" stroke="white" stroke-miterlimit="1.45">
          <text x="697.5791" xml:space="preserve" y="-57.2913" stroke="none">Se deben superar todos los RA</text>
          <text x="680.4785" xml:space="preserve" y="-43.3226" stroke="none">para considerar aprobado el modulo</text>
        </g>
      </g>
    </g>
    <g id="y.node.10">
      <g fill="white" text-rendering="geometricPrecision" shape-rendering="geometricPrecision" transform="matrix(1,0,0,1,-40,93)" stroke="white">
        <rect x="731.1719" y="290.0527" width="100.6562" rx="4" ry="4" height="36.3562" stroke="none"/>
      </g>
      <g>
        <g font-size="16px" stroke-linecap="butt" transform="matrix(1,0,0,1,-40,93)" text-rendering="geometricPrecision" font-family="'DejaVu Serif'" shape-rendering="geometricPrecision" stroke-miterlimit="1.45">
          <text x="738.1719" xml:space="preserve" y="313.7699" stroke="none">porcentaje</text>
        </g>
      </g>
      <g stroke-linecap="butt" transform="matrix(1,0,0,1,-40,93)" fill="rgb(51,51,51)" text-rendering="geometricPrecision" shape-rendering="geometricPrecision" stroke="rgb(51,51,51)" stroke-width="3" stroke-miterlimit="1.45">
        <rect x="731.1719" y="290.0527" fill="none" width="100.6562" rx="4" ry="4" height="36.3562"/>
      </g>
    </g>
    <g id="y.node.11">
      <g fill="rgb(255,153,0)" text-rendering="geometricPrecision" shape-rendering="geometricPrecision" transform="matrix(1,0,0,1,-40,93)" stroke="rgb(255,153,0)">
        <ellipse rx="27.7148" ry="27.6589" cx="552.75" cy="434.8027" stroke="none"/>
      </g>
      <g>
        <g font-size="16px" stroke-linecap="butt" transform="matrix(1,0,0,1,-40,93)" text-rendering="geometricPrecision" font-family="'DejaVu Serif Condensed'" shape-rendering="geometricPrecision" font-weight="bold" stroke-miterlimit="1.45">
          <text x="543.8984" xml:space="preserve" y="440.4277" stroke="none">IE</text>
        </g>
      </g>
      <g stroke-linecap="butt" transform="matrix(1,0,0,1,-40,93)" fill="gray" text-rendering="geometricPrecision" shape-rendering="geometricPrecision" stroke="gray" stroke-width="3" stroke-miterlimit="1.45">
        <ellipse rx="27.7148" fill="none" ry="27.6589" cx="552.75" cy="434.8027"/>
      </g>
    </g>
    <g id="y.node.12">
      <g fill="rgb(153,153,153)" text-rendering="geometricPrecision" shape-rendering="geometricPrecision" transform="matrix(1,0,0,1,-40,93)" stroke="rgb(153,153,153)">
        <path d="M651.957 392.7124 L869.6465 392.7124 L869.6465 407.7124 L884.6465 407.7124 L884.6465 438.0775 L651.957 438.0775 Z" stroke="none"/>
        <path fill="white" d="M869.6465 392.7124 L869.6465 407.7124 L884.6465 407.7124 Z" fill-rule="evenodd" stroke="none"/>
      </g>
      <g text-rendering="geometricPrecision" stroke-miterlimit="1.45" shape-rendering="geometricPrecision" transform="matrix(1,0,0,1,-40,93)" stroke-linecap="butt">
        <path fill="none" d="M651.957 392.7124 L869.6465 392.7124 L869.6465 407.7124 L884.6465 407.7124 L884.6465 438.0775 L651.957 438.0775 Z"/>
        <path fill="none" d="M869.6465 392.7124 L869.6465 407.7124 L884.6465 407.7124 Z" fill-rule="evenodd"/>
      </g>
      <g>
        <g stroke-linecap="butt" transform="matrix(1,0,0,1,-40,93)" fill="white" text-rendering="geometricPrecision" font-family="sans-serif" shape-rendering="geometricPrecision" stroke="white" stroke-miterlimit="1.45">
          <text x="666.5625" xml:space="preserve" y="412.5648" stroke="none">Son examenes, pruebas practicas</text>
          <text x="652.3389" xml:space="preserve" y="426.5336" stroke="none">en clase, proyectos, exposiciones, etc.</text>
        </g>
      </g>
    </g>
    <g id="y.edge.0">
      <g stroke-linecap="butt" transform="matrix(1,0,0,1,-40,93)" fill="rgb(170,170,170)" text-rendering="geometricPrecision" shape-rendering="geometricPrecision" stroke="rgb(170,170,170)" stroke-width="3" stroke-miterlimit="1.45">
        <path fill="none" d="M552.75 189.9794 L552.75 270.5719"/>
        <path d="M552.75 280.5719 L559 265.5719 L552.75 269.3219 L546.5 265.5719 Z" stroke="none"/>
      </g>
      <g>
        <g font-size="14px" stroke-linecap="butt" transform="matrix(1,0,0,1,-40,93)" text-rendering="geometricPrecision" font-family="'DejaVu Serif'" shape-rendering="geometricPrecision" stroke-miterlimit="1.45">
          <text x="522.4541" xml:space="preserve" y="214.5498" stroke="none">se</text>
          <text x="467.0762" xml:space="preserve" y="230.8467" stroke="none">desglosan</text>
          <text x="520.6221" xml:space="preserve" y="247.1436" stroke="none">en</text>
        </g>
      </g>
    </g>
    <g id="y.edge.1">
      <g stroke-linecap="butt" transform="matrix(1,0,0,1,-40,93)" fill="rgb(170,170,170)" text-rendering="geometricPrecision" shape-rendering="geometricPrecision" stroke="rgb(170,170,170)" stroke-width="3" stroke-miterlimit="1.45">
        <path fill="none" d="M552.75 44.4205 L552.75 125.0206"/>
        <path d="M552.75 135.0206 L559 120.0206 L552.75 123.7706 L546.5 120.0206 Z" stroke="none"/>
      </g>
      <g>
        <g font-size="14px" stroke-linecap="butt" transform="matrix(1,0,0,1,-40,93)" text-rendering="geometricPrecision" font-family="'DejaVu Serif'" shape-rendering="geometricPrecision" stroke-miterlimit="1.45">
          <text x="529.9236" xml:space="preserve" y="71.0585" stroke="none">se </text>
          <text x="502.3202" xml:space="preserve" y="87.3554" stroke="none">divide </text>
          <text x="528.0916" xml:space="preserve" y="103.6523" stroke="none">en </text>
        </g>
      </g>
    </g>
    <g id="y.edge.2">
      <g stroke-linecap="butt" transform="matrix(1,0,0,1,-40,93)" fill="rgb(170,170,170)" text-rendering="geometricPrecision" shape-rendering="geometricPrecision" stroke="rgb(170,170,170)" stroke-width="3" stroke-miterlimit="1.45">
        <path fill="none" d="M580.8164 162.5 L721.1821 162.5"/>
        <path d="M731.1821 162.5 L716.1821 156.25 L719.9321 162.5 L716.1821 168.75 Z" stroke="none"/>
      </g>
      <g>
        <g font-size="14px" stroke-linecap="butt" transform="matrix(1,0,0,1,-40,93)" text-rendering="geometricPrecision" font-family="'DejaVu Serif'" shape-rendering="geometricPrecision" stroke-miterlimit="1.45">
          <text x="613.2803" xml:space="preserve" y="108.6748" stroke="none">según la </text>
          <text x="602.6299" xml:space="preserve" y="124.9717" stroke="none">importancia</text>
          <text x="603.6416" xml:space="preserve" y="141.2686" stroke="none">se le asigna</text>
        </g>
      </g>
    </g>
    <g id="y.edge.3">
      <g stroke-linecap="butt" transform="matrix(1,0,0,1,-40,93)" fill="rgb(170,170,170)" text-rendering="geometricPrecision" shape-rendering="geometricPrecision" stroke="rgb(170,170,170)" stroke-width="3" stroke-miterlimit="1.45">
        <path fill="none" d="M524.6836 162.5 L352.312 162.5"/>
        <path d="M342.312 162.5 L357.312 168.75 L353.562 162.5 L357.312 156.25 Z" stroke="none"/>
      </g>
      <g>
        <g font-size="14px" stroke-linecap="butt" transform="matrix(1,0,0,1,-40,93)" text-rendering="geometricPrecision" font-family="'DejaVu Serif'" shape-rendering="geometricPrecision" stroke-miterlimit="1.45">
          <text x="398.9149" xml:space="preserve" y="151.0504" stroke="none">ejemplo</text>
        </g>
      </g>
    </g>
    <g id="y.edge.4">
      <g stroke-linecap="butt" transform="matrix(1,0,0,1,-40,93)" fill="rgb(170,170,170)" text-rendering="geometricPrecision" shape-rendering="geometricPrecision" stroke="rgb(170,170,170)" stroke-width="3" stroke-miterlimit="1.45">
        <path fill="none" d="M525.0352 308.2308 L351.618 308.2308"/>
        <path d="M341.618 308.2308 L356.618 314.4808 L352.868 308.2308 L356.618 301.9808 Z" stroke="none"/>
      </g>
      <g>
        <g font-size="14px" stroke-linecap="butt" transform="matrix(1,0,0,1,-40,93)" text-rendering="geometricPrecision" font-family="'DejaVu Serif'" shape-rendering="geometricPrecision" stroke-miterlimit="1.45">
          <text x="395.0691" xml:space="preserve" y="296.3824" stroke="none">ejemplo</text>
        </g>
      </g>
    </g>
    <g id="y.edge.5">
      <g stroke-linecap="butt" transform="matrix(1,0,0,1,-40,93)" fill="rgb(170,170,170)" text-rendering="geometricPrecision" shape-rendering="geometricPrecision" stroke-dasharray="6,2" stroke="rgb(170,170,170)" stroke-miterlimit="1.45">
        <path fill="none" d="M566.9169 138.7782 L568.0273 136.9189 L584.0223 114.0082 L600.735 93.768 L618.1655 76.1982 L636.3137 61.2988 L655.1796 49.0698 L674.7632 39.5113 L695.0646 32.6232 L716.0837 28.4056 L737.8206 26.8583 L760.2752 27.9815 L783.4475 31.7752 L807.3376 38.2392 L831.9454 47.3737 L839.6865 50.9821"/>
      </g>
      <g/>
    </g>
    <g id="y.edge.6">
      <g stroke-linecap="butt" transform="matrix(1,0,0,1,-40,93)" fill="rgb(170,170,170)" text-rendering="geometricPrecision" shape-rendering="geometricPrecision" stroke-dasharray="6,2" stroke="rgb(170,170,170)" stroke-miterlimit="1.45">
        <path fill="none" d="M508.5235 -18.0702 L508.3283 -18.1982 L486.1409 -30.4919 L463.9691 -40.5227 L441.8129 -48.2905 L419.6723 -53.7954 L397.5473 -57.0373 L375.438 -58.0163 L353.3442 -56.7324 L331.2661 -53.1855 L309.2035 -47.3757 L287.1566 -39.3029 L265.1253 -28.9672 L246.0765 -18.0664"/>
      </g>
      <g/>
    </g>
    <g id="y.edge.7">
      <g stroke-linecap="butt" transform="matrix(1,0,0,1,-40,93)" fill="rgb(170,170,170)" text-rendering="geometricPrecision" shape-rendering="geometricPrecision" stroke-dasharray="6,2" stroke="rgb(170,170,170)" stroke-miterlimit="1.45">
        <path fill="none" d="M625.8754 0.8516 L644.2168 -3.1987 L674.0219 -11.0544 L703.4851 -20.1085 L732.6064 -30.361 L736.1757 -31.7812"/>
      </g>
      <g/>
    </g>
    <g id="y.edge.8">
      <g stroke-linecap="butt" transform="matrix(1,0,0,1,-40,93)" fill="rgb(170,170,170)" text-rendering="geometricPrecision" shape-rendering="geometricPrecision" stroke="rgb(170,170,170)" stroke-width="3" stroke-miterlimit="1.45">
        <path fill="none" d="M580.4648 308.2308 L721.1921 308.2308"/>
        <path d="M731.1921 308.2308 L716.1921 301.9808 L719.9421 308.2308 L716.1921 314.4808 Z" stroke="none"/>
      </g>
      <g>
        <g font-size="14px" stroke-linecap="butt" transform="matrix(1,0,0,1,-40,93)" text-rendering="geometricPrecision" font-family="'DejaVu Serif'" shape-rendering="geometricPrecision" stroke-miterlimit="1.45">
          <text x="629.4053" xml:space="preserve" y="259.5498" stroke="none">según la </text>
          <text x="618.7549" xml:space="preserve" y="275.8467" stroke="none">importancia</text>
          <text x="619.7666" xml:space="preserve" y="292.1436" stroke="none">se le asigna</text>
        </g>
      </g>
    </g>
    <g id="y.edge.9">
      <g stroke-linecap="butt" transform="matrix(1,0,0,1,-40,93)" fill="rgb(170,170,170)" text-rendering="geometricPrecision" shape-rendering="geometricPrecision" stroke="rgb(170,170,170)" stroke-width="3" stroke-miterlimit="1.45">
        <path fill="none" d="M781.5 190.6808 L781.5 290.0761"/>
        <path d="M781.5 180.6808 L775.25 195.6808 L781.5 191.9308 L787.75 195.6808 Z" stroke="none"/>
      </g>
      <g>
        <g font-size="14px" stroke-linecap="butt" transform="matrix(1,0,0,1,-40,93)" text-rendering="geometricPrecision" font-family="'DejaVu Serif'" shape-rendering="geometricPrecision" stroke-miterlimit="1.45">
          <text x="790.146" xml:space="preserve" y="243.8467" stroke="none">dentro de</text>
        </g>
      </g>
    </g>
    <g id="y.edge.10">
      <g stroke-linecap="butt" transform="matrix(1,0,0,1,-40,93)" fill="rgb(170,170,170)" text-rendering="geometricPrecision" shape-rendering="geometricPrecision" stroke="rgb(170,170,170)" stroke-width="3" stroke-miterlimit="1.45">
        <path fill="none" d="M552.75 407.1438 L552.75 345.8897"/>
        <path d="M552.75 335.8897 L546.5 350.8897 L552.75 347.1397 L559 350.8897 Z" stroke="none"/>
      </g>
      <g>
        <g font-size="14px" stroke-linecap="butt" transform="matrix(1,0,0,1,-40,93)" text-rendering="geometricPrecision" font-family="'DejaVu Serif'" shape-rendering="geometricPrecision" stroke-miterlimit="1.45">
          <text x="483.8008" xml:space="preserve" y="375.6982" stroke="none">evaluan</text>
          <text x="496.1602" xml:space="preserve" y="391.9951" stroke="none">varios</text>
        </g>
      </g>
    </g>
    <g id="y.edge.12"/>
    <g id="y.edge.11">
      <g stroke-linecap="butt" transform="matrix(1,0,0,1,-40,93)" fill="rgb(170,170,170)" text-rendering="geometricPrecision" shape-rendering="geometricPrecision" stroke-dasharray="6,2" stroke="rgb(170,170,170)" stroke-miterlimit="1.45">
        <path fill="none" d="M651.9547 415.3843 L638.0391 409.9527 L624.5359 406.7585 L611.4724 405.8123 L598.8486 407.1143 L586.6644 410.6643 L574.9199 416.4624 L574.0588 417.0753"/>
      </g>
      <g/>
    </g>
  </g>
</svg>
