<?xml version="1.0" encoding="UTF-8"?><svg xmlns="http://www.w3.org/2000/svg" xmlns:xlink="http://www.w3.org/1999/xlink" fill-opacity="1" color-rendering="auto" color-interpolation="auto" text-rendering="auto" stroke="black" stroke-linecap="square" width="865" stroke-miterlimit="10" shape-rendering="auto" stroke-opacity="1" fill="black" stroke-dasharray="none" font-weight="normal" stroke-width="1" height="459" font-family="'Dialog'" font-style="normal" stroke-linejoin="miter" font-size="12px" stroke-dashoffset="0" image-rendering="auto">
  <!--Generated by ySVG 2.5-->
  <defs id="genericDefs"/>
  <g>
    <defs id="defs1">
      <clipPath clipPathUnits="userSpaceOnUse" id="clipPath1">
        <path d="M0 0 L865 0 L865 459 L0 459 L0 0 Z"/>
      </clipPath>
      <clipPath clipPathUnits="userSpaceOnUse" id="clipPath2">
        <path d="M197 246 L1062 246 L1062 705 L197 705 L197 246 Z"/>
      </clipPath>
    </defs>
    <g fill="white" text-rendering="geometricPrecision" shape-rendering="geometricPrecision" transform="translate(-197,-246)" stroke="white">
      <rect x="197" width="865" height="459" y="246" clip-path="url(#clipPath2)" stroke="none"/>
    </g>
    <g id="y.node.0">
      <g/>
      <g text-rendering="geometricPrecision" stroke-miterlimit="1.45" shape-rendering="geometricPrecision" transform="matrix(1,0,0,1,-197,-246)" stroke-linecap="butt">
        <rect x="784.6016" y="317.1299" fill="none" width="226.7969" rx="4" ry="4" height="86.2401"/>
      </g>
    </g>
    <g id="y.node.1">
      <g fill="rgb(204,255,204)" text-rendering="geometricPrecision" shape-rendering="geometricPrecision" transform="matrix(1,0,0,1,-197,-246)" stroke="rgb(204,255,204)">
        <rect x="247.8359" y="296.3799" width="360.3281" rx="4" ry="4" height="127.7401" stroke="none"/>
      </g>
      <g>
        <g font-size="20px" stroke-linecap="butt" transform="matrix(1,0,0,1,-197,-246)" text-rendering="geometricPrecision" font-family="'DejaVu Serif'" shape-rendering="geometricPrecision" font-weight="bold" stroke-miterlimit="1.45">
          <text x="392.1455" xml:space="preserve" y="321.1592" stroke="none">Telnet</text>
        </g>
      </g>
      <g text-rendering="geometricPrecision" stroke-miterlimit="1.45" stroke-width="3" shape-rendering="geometricPrecision" transform="matrix(1,0,0,1,-197,-246)" stroke-linecap="butt">
        <rect x="247.8359" y="296.3799" fill="none" width="360.3281" rx="4" ry="4" height="127.7401"/>
      </g>
    </g>
    <g id="y.node.2">
      <g>
        <g text-rendering="geometricPrecision" stroke-miterlimit="1.45" shape-rendering="geometricPrecision" font-family="'DejaVu Serif'" transform="matrix(1,0,0,1,-197,-246)" stroke-linecap="butt">
          <text x="257.7061" xml:space="preserve" y="343.2324" stroke="none">Telnet (Telecommunication Network1​) es el nombre de </text>
        </g>
        <g text-rendering="geometricPrecision" stroke-miterlimit="1.45" shape-rendering="geometricPrecision" font-family="'DejaVu Serif'" transform="matrix(1,0,0,1,-197,-246)" stroke-linecap="butt">
          <text x="268.9033" xml:space="preserve" y="357.2012" stroke="none">un protocolo de red que nos permite acceder a otra </text>
          <text x="283.8301" xml:space="preserve" y="371.1699" stroke="none">máquina para manejarla remotamente como si </text>
          <text x="270.9922" xml:space="preserve" y="385.1387" stroke="none">estuviéramos sentados delante de ella. También es </text>
          <text x="302.167" xml:space="preserve" y="399.1074" stroke="none">el nombre del programa informático que </text>
          <text x="360.2217" xml:space="preserve" y="413.0762" stroke="none">implementa el cliente.</text>
        </g>
      </g>
    </g>
    <g id="y.node.3">
      <g fill="rgb(204,153,255)" text-rendering="geometricPrecision" shape-rendering="geometricPrecision" transform="matrix(1,0,0,1,-197,-246)" stroke="rgb(204,153,255)">
        <rect x="400" y="484" width="56" rx="4" ry="4" height="40" stroke="none"/>
      </g>
      <g text-rendering="geometricPrecision" stroke-miterlimit="1.45" shape-rendering="geometricPrecision" transform="matrix(1,0,0,1,-197,-246)" stroke-linecap="butt">
        <rect x="400" y="484" fill="none" width="56" rx="4" ry="4" height="40"/>
      </g>
      <g>
        <g text-rendering="geometricPrecision" stroke-miterlimit="1.45" shape-rendering="geometricPrecision" font-family="sans-serif" transform="matrix(1,0,0,1,-197,-246)" stroke-linecap="butt">
          <text x="408.207" xml:space="preserve" y="501.1699" stroke="none">puerto</text>
          <text x="420.3652" xml:space="preserve" y="515.1387" stroke="none">23</text>
        </g>
      </g>
    </g>
    <g id="y.node.4">
      <g transform="matrix(1,0,0,1,-197,-246)" fill-opacity="0.1451" fill="rgb(255,0,0)" text-rendering="geometricPrecision" shape-rendering="geometricPrecision" stroke="rgb(255,0,0)" stroke-opacity="0.1451">
        <rect x="314.6016" y="554" width="399.5715" rx="4" ry="4" height="100.3145" stroke="none"/>
      </g>
      <g stroke-linecap="butt" transform="matrix(1,0,0,1,-197,-246)" fill="red" text-rendering="geometricPrecision" shape-rendering="geometricPrecision" stroke="red" stroke-miterlimit="1.45">
        <rect x="314.6016" y="554" fill="none" width="399.5715" rx="4" ry="4" height="100.3145"/>
      </g>
      <g>
        <g text-rendering="geometricPrecision" stroke-miterlimit="1.45" shape-rendering="geometricPrecision" font-family="sans-serif" transform="matrix(1,0,0,1,-197,-246)" stroke-linecap="butt">
          <text x="328.5982" xml:space="preserve" y="580.3741" stroke="none">Todos los nombres de usuario y contraseñas necesarias para </text>
          <text x="337.5543" xml:space="preserve" y="594.3428" stroke="none">entrar en las máquinas viajan por la red como texto plano </text>
          <text x="329.0201" xml:space="preserve" y="608.3116" stroke="none">(cadenas de texto sin cifrar). Esto facilita que cualquiera que </text>
          <text x="321.2418" xml:space="preserve" y="622.2803" stroke="none">espíe el tráfico de la red pueda obtener los nombres de usuario </text>
          <text x="470.3307" xml:space="preserve" y="636.2491" stroke="none">y contraseñas.</text>
        </g>
      </g>
    </g>
    <g id="y.node.5">
      <a xlink:href="actvTelnet.svg">
        <g fill="white" text-rendering="geometricPrecision" shape-rendering="geometricPrecision" transform="matrix(1,0,0,1,-197,-246)" stroke="white">
          <rect x="796.6016" y="332.8898" width="205.7969" rx="4" ry="4" height="26.2401" stroke="none"/>
        </g>
        <g>
          <g text-rendering="geometricPrecision" stroke-miterlimit="1.45" shape-rendering="geometricPrecision" font-family="'DejaVu Serif'" transform="matrix(1,0,0,1,-197,-246)" stroke-linecap="butt">
            <text x="811.4863" xml:space="preserve" y="350.1642" stroke="none">Activación servicio ( WinXP )</text>
          </g>
        </g>
        <g text-rendering="geometricPrecision" stroke-miterlimit="1.45" stroke-dasharray="6,2" shape-rendering="geometricPrecision" transform="matrix(1,0,0,1,-197,-246)" stroke-linecap="butt">
          <rect x="796.6016" y="332.8898" fill="none" width="205.7969" rx="4" ry="4" height="26.2401"/>
        </g>
      </a>
    </g>
    <g id="y.node.6">
      <a xlink:href="conexTelnet.svg">
        <g fill="white" text-rendering="geometricPrecision" shape-rendering="geometricPrecision" transform="matrix(1,0,0,1,-197,-246)" stroke="white">
          <rect x="796.6016" y="366.1299" width="132.7969" rx="4" ry="4" height="26.2401" stroke="none"/>
        </g>
        <g>
          <g text-rendering="geometricPrecision" stroke-miterlimit="1.45" shape-rendering="geometricPrecision" font-family="'DejaVu Serif'" transform="matrix(1,0,0,1,-197,-246)" stroke-linecap="butt">
            <text x="814.9883" xml:space="preserve" y="383.4043" stroke="none">Conexión telnet</text>
          </g>
        </g>
        <g text-rendering="geometricPrecision" stroke-miterlimit="1.45" stroke-dasharray="6,2" shape-rendering="geometricPrecision" transform="matrix(1,0,0,1,-197,-246)" stroke-linecap="butt">
          <rect x="796.6016" y="366.1299" fill="none" width="132.7969" rx="4" ry="4" height="26.2401"/>
        </g>
      </a>
    </g>
    <g id="y.edge.3">
      <g stroke-linecap="butt" transform="matrix(1,0,0,1,-197,-246)" fill="rgb(170,170,170)" text-rendering="geometricPrecision" shape-rendering="geometricPrecision" stroke="rgb(170,170,170)" stroke-width="3" stroke-miterlimit="1.45">
        <path fill="none" d="M608.1584 360.25 L774.5735 360.25"/>
        <path d="M784.5735 360.25 L769.5735 354 L773.3235 360.25 L769.5735 366.5 Z" stroke="none"/>
      </g>
      <g>
        <g text-rendering="geometricPrecision" stroke-miterlimit="1.45" shape-rendering="geometricPrecision" font-family="sans-serif" transform="matrix(1,0,0,1,-197,-246)" stroke-linecap="butt">
          <text x="623.5186" xml:space="preserve" y="350.1543" stroke="none">procedimientos de uso</text>
        </g>
      </g>
    </g>
    <g id="y.edge.0"/>
    <g id="y.edge.1">
      <g stroke-linecap="butt" transform="matrix(1,0,0,1,-197,-246)" fill="rgb(170,170,170)" text-rendering="geometricPrecision" shape-rendering="geometricPrecision" stroke="rgb(170,170,170)" stroke-width="3" stroke-miterlimit="1.45">
        <path fill="none" d="M428 424.0882 L428 470.233"/>
        <path d="M428 483.983 L435.5 468.983 L420.5 468.983 Z" stroke="none"/>
      </g>
      <g>
        <g text-rendering="geometricPrecision" stroke-miterlimit="1.45" shape-rendering="geometricPrecision" font-family="sans-serif" transform="matrix(1,0,0,1,-197,-246)" stroke-linecap="butt">
          <text x="399.3945" xml:space="preserve" y="453.1543" stroke="none">usa</text>
        </g>
      </g>
    </g>
    <g id="y.edge.2">
      <g stroke-linecap="butt" transform="matrix(1,0,0,1,-197,-246)" fill="rgb(170,170,170)" text-rendering="geometricPrecision" shape-rendering="geometricPrecision" stroke="rgb(170,170,170)" stroke-width="3" stroke-miterlimit="1.45">
        <path fill="none" d="M514.3873 424.1328 L514.3873 544.0089"/>
        <path d="M514.3873 554.0089 L520.6373 539.0089 L514.3873 542.7589 L508.1373 539.0089 Z" stroke="none"/>
      </g>
      <g>
        <g text-rendering="geometricPrecision" stroke-miterlimit="1.45" shape-rendering="geometricPrecision" font-family="sans-serif" transform="matrix(1,0,0,1,-197,-246)" stroke-linecap="butt">
          <text x="523.7031" xml:space="preserve" y="472.1855" stroke="none">tiene un</text>
          <text x="523.7031" xml:space="preserve" y="486.1543" stroke="none">gran problema</text>
          <text x="523.7031" xml:space="preserve" y="500.123" stroke="none">de seguridad</text>
        </g>
      </g>
    </g>
  </g>
</svg>
