<?xml version="1.0" encoding="UTF-8"?>
<!DOCTYPE svg PUBLIC "-//W3C//DTD SVG 1.1//EN" "http://www.w3.org/Graphics/SVG/1.1/DTD/svg11.dtd">
<svg version="1.2" xmlns="http://www.w3.org/2000/svg" xmlns:xlink="http://www.w3.org/1999/xlink" x="0" y="0" width="1578" height="1475" viewBox="0 0 1578 1475">
<style type="text/css"><![CDATA[
text { font:12px Dialog; }
]]></style>
<rect x="-1844" y="-1023" width="5096" height="4890" style="fill:rgb(255,255,255);stroke:none" />
<clipPath id="clip1"><path d="M15,15 L1563,15 L1563,1460 L15,1460 Z M730,18 C725.5820313,18 722,21.5820313 722,26 L722,79 C722,83.4179688 725.5820313,87 730,87 L1018,87 C1022.4179688,87 1026,83.4179688 1026,79 L1026,26 C1026,21.5820313 1022.4179688,18 1018,18 Z M730,18 Z M730,18" /></clipPath>
<path d="M874,97 L874,155.75 C874,160.1640625 877.5859375,163.75 882,163.75 L895,163.75" style="fill:none;stroke:rgb(85,142,213)" clip-path="url(#clip1)" />
<clipPath id="clip2"><path d="M15,15 L1563,15 L1563,1460 L15,1460 Z M730,18 C725.5820313,18 722,21.5820313 722,26 L722,79 C722,83.4179688 725.5820313,87 730,87 L1018,87 C1022.4179688,87 1026,83.4179688 1026,79 L1026,26 C1026,21.5820313 1022.4179688,18 1018,18 Z M730,18 Z M730,18" /></clipPath>
<path d="M874,97 L874,239.6757813 C874,244.09375 870.4140625,247.6757813 866,247.6757813 L852,247.6757813" style="fill:none;stroke:rgb(85,142,213)" clip-path="url(#clip2)" />
<clipPath id="clip3"><path d="M14,14 L1564,14 L1564,1461 L14,1461 L14,14 Z" /></clipPath>
<path d="M874,87 L874,97" style="fill:none;stroke:rgb(85,142,213)" clip-path="url(#clip3)" />
<clipPath id="clip4"><path d="M718,14 L1031,14 L1031,92 L718,92 L718,14 Z" /></clipPath>
<path d="M730,18 C725.5820313,18 722,21.5820313 722,26 L722,79 C722,83.4179688 725.5820313,87 730,87 L1018,87 C1022.4179688,87 1026,83.4179688 1026,79 L1026,26 C1026,21.5820313 1022.4179688,18 1018,18 Z M730,18" style="fill:rgb(220,230,242);stroke:none" clip-path="url(#clip4)" />
<clipPath id="clip5"><path d="M718,14 L1031,14 L1031,92 L718,92 L718,14 Z" /></clipPath>
<path d="M730,18 C725.5820313,18 722,21.5820313 722,26 L722,79 C722,83.4179688 725.5820313,87 730,87 L1018,87 C1022.4179688,87 1026,83.4179688 1026,79 L1026,26 C1026,21.5820313 1022.4179688,18 1018,18 Z M730,18" style="fill:none;stroke:rgb(85,142,213);stroke-width:5" clip-path="url(#clip5)" />
<text x="757" y="57" style="font:18px Open Sans">Arbol de directorios</text>
<clipPath id="clip6"><path d="M894,142 L1563,142 L1563,738 L894,738 Z M900,143 C897.2382813,143 895,145.2382813 895,148 L895,179 C895,181.7617188 897.2382813,184 900,184 L990,184 C992.7617188,184 995,181.7617188 995,179 L995,148 C995,145.2382813 992.7617188,143 990,143 Z M900,143 Z M900,143" /></clipPath>
<path d="M945,197 L945,230 C945,232.2070313 946.7929688,234 949,234 L955,234" style="fill:none;stroke:rgb(85,142,213)" clip-path="url(#clip6)" />
<clipPath id="clip7"><path d="M894,142 L1563,142 L1563,738 L894,738 Z M900,143 C897.2382813,143 895,145.2382813 895,148 L895,179 C895,181.7617188 897.2382813,184 900,184 L990,184 C992.7617188,184 995,181.7617188 995,179 L995,148 C995,145.2382813 992.7617188,143 990,143 Z M900,143 Z M900,143" /></clipPath>
<path d="M945,197 L945,344 C945,346.2070313 946.7929688,348 949,348 L955,348" style="fill:none;stroke:rgb(85,142,213)" clip-path="url(#clip7)" />
<clipPath id="clip8"><path d="M894,142 L1563,142 L1563,738 L894,738 Z M900,143 C897.2382813,143 895,145.2382813 895,148 L895,179 C895,181.7617188 897.2382813,184 900,184 L990,184 C992.7617188,184 995,181.7617188 995,179 L995,148 C995,145.2382813 992.7617188,143 990,143 Z M900,143 Z M900,143" /></clipPath>
<path d="M945,197 L945,440 C945,442.2070313 946.7929688,444 949,444 L955,444" style="fill:none;stroke:rgb(85,142,213)" clip-path="url(#clip8)" />
<clipPath id="clip9"><path d="M894,142 L1563,142 L1563,738 L894,738 Z M900,143 C897.2382813,143 895,145.2382813 895,148 L895,179 C895,181.7617188 897.2382813,184 900,184 L990,184 C992.7617188,184 995,181.7617188 995,179 L995,148 C995,145.2382813 992.7617188,143 990,143 Z M900,143 Z M900,143" /></clipPath>
<path d="M945,197 L945,536 C945,538.2070313 946.7929688,540 949,540 L955,540" style="fill:none;stroke:rgb(85,142,213)" clip-path="url(#clip9)" />
<clipPath id="clip10"><path d="M894,142 L1563,142 L1563,738 L894,738 Z M900,143 C897.2382813,143 895,145.2382813 895,148 L895,179 C895,181.7617188 897.2382813,184 900,184 L990,184 C992.7617188,184 995,181.7617188 995,179 L995,148 C995,145.2382813 992.7617188,143 990,143 Z M900,143 Z M900,143" /></clipPath>
<path d="M945,197 L945,686 C945,688.2070313 946.7929688,690 949,690 L955,690" style="fill:none;stroke:rgb(85,142,213)" clip-path="url(#clip10)" />
<clipPath id="clip11"><path d="M893,141 L1564,141 L1564,739 L893,739 L893,141 Z" /></clipPath>
<path d="M945,184 L945,197" style="fill:none;stroke:rgb(85,142,213)" clip-path="url(#clip11)" />
<clipPath id="clip12"><path d="M893,141 L998,141 L998,187 L893,187 L893,141 Z" /></clipPath>
<path d="M900,143 C897.2382813,143 895,145.2382813 895,148 L895,179 C895,181.7617188 897.2382813,184 900,184 L990,184 C992.7617188,184 995,181.7617188 995,179 L995,148 C995,145.2382813 992.7617188,143 990,143 Z M900,143" style="fill:rgb(220,230,242);stroke:none" clip-path="url(#clip12)" />
<clipPath id="clip13"><path d="M893,141 L998,141 L998,187 L893,187 L893,141 Z" /></clipPath>
<path d="M900,143 C897.2382813,143 895,145.2382813 895,148 L895,179 C895,181.7617188 897.2382813,184 900,184 L990,184 C992.7617188,184 995,181.7617188 995,179 L995,148 C995,145.2382813 992.7617188,143 990,143 Z M900,143" style="fill:none;stroke:rgb(85,142,213);stroke-width:2" clip-path="url(#clip13)" />
<text x="909" y="166" style="font:13px Open Sans">Windows</text>
<clipPath id="clip14"><path d="M939,185 L952,185 L952,198 L939,198 L939,185 Z" /></clipPath>
<path d="M949.5,191 C949.5,188.515625 947.484375,186.5 945,186.5 C942.515625,186.5 940.5,188.515625 940.5,191 C940.5,193.484375 942.515625,195.5 945,195.5 C947.484375,195.5 949.5,193.484375 949.5,191 Z M949.5,191" style="fill:rgb(250,250,250);stroke:none" clip-path="url(#clip14)" />
<clipPath id="clip15"><path d="M939,185 L952,185 L952,198 L939,198 L939,185 Z" /></clipPath>
<path d="M949.5,191 C949.5,188.515625 947.484375,186.5 945,186.5 C942.515625,186.5 940.5,188.515625 940.5,191 C940.5,193.484375 942.515625,195.5 945,195.5 C947.484375,195.5 949.5,193.484375 949.5,191 Z M949.5,191" style="fill:none;stroke:rgb(85,142,213)" clip-path="url(#clip15)" />
<clipPath id="clip16"><path d="M939,185 L952,185 L952,198 L939,198 L939,185 Z" /></clipPath>
<path d="M943,191 L947,191" style="fill:none;stroke:rgb(150,160,200)" clip-path="url(#clip16)" />
<clipPath id="clip17"><path d="M953,205 L1563,205 L1563,318 L953,318 Z M955,207 L955,233 L1109,233 L1109,207 Z M955,207 Z M955,207" /></clipPath>
<path d="M1032,246 L1032,313 C1032,315.2070313 1033.7929688,317 1036,317 L1041,317" style="fill:none;stroke:rgb(85,142,213)" clip-path="url(#clip17)" />
<clipPath id="clip18"><path d="M952,204 L1564,204 L1564,319 L952,319 L952,204 Z" /></clipPath>
<path d="M1032,233 L1032,246" style="fill:none;stroke:rgb(85,142,213)" clip-path="url(#clip18)" />
<clipPath id="clip19"><path d="M952,204 L1113,204 L1113,237 L952,237 L952,204 Z" /></clipPath>
<path d="M955,234 L1109,234 Z M955,234" style="fill:none;stroke:rgb(85,142,213);stroke-width:3" clip-path="url(#clip19)" />
<text x="966" y="222" style="font:10px Open Sans">Archivos de programa</text>
<clipPath id="clip20"><path d="M1026,235 L1039,235 L1039,248 L1026,248 L1026,235 Z" /></clipPath>
<path d="M1036.5,241 C1036.5,238.515625 1034.484375,236.5 1032,236.5 C1029.515625,236.5 1027.5,238.515625 1027.5,241 C1027.5,243.484375 1029.515625,245.5 1032,245.5 C1034.484375,245.5 1036.5,243.484375 1036.5,241 Z M1036.5,241" style="fill:rgb(250,250,250);stroke:none" clip-path="url(#clip20)" />
<clipPath id="clip21"><path d="M1026,235 L1039,235 L1039,248 L1026,248 L1026,235 Z" /></clipPath>
<path d="M1036.5,241 C1036.5,238.515625 1034.484375,236.5 1032,236.5 C1029.515625,236.5 1027.5,238.515625 1027.5,241 C1027.5,243.484375 1029.515625,245.5 1032,245.5 C1034.484375,245.5 1036.5,243.484375 1036.5,241 Z M1036.5,241" style="fill:none;stroke:rgb(85,142,213)" clip-path="url(#clip21)" />
<clipPath id="clip22"><path d="M1026,235 L1039,235 L1039,248 L1026,248 L1026,235 Z" /></clipPath>
<path d="M1030,241 L1034,241" style="fill:none;stroke:rgb(150,160,200)" clip-path="url(#clip22)" />
<clipPath id="clip23"><path d="M1039,254 L1564,254 L1564,319 L1039,319 L1039,254 Z" /></clipPath>
<path d="M1041,256 L1041,316 L1561,316 L1561,256 Z M1041,256" style="fill:rgb(255,255,255);stroke:none" clip-path="url(#clip23)" />
<clipPath id="clip24"><path d="M1039,254 L1564,254 L1564,319 L1039,319 L1039,254 Z" /></clipPath>
<path d="M1041,317 L1561,317 Z M1041,317" style="fill:none;stroke:rgb(85,142,213)" clip-path="url(#clip24)" />
<text x="1051" y="270" style="font:10px Open Sans">: es donde están instalados los programas. Si el sistema operativo es de 32 bits, aquí </text>
<text x="1051" y="288" style="font:10px Open Sans">se almacenan todas las aplicaciones. En los sistemas de 64 bits, solo contiene las </text>
<text x="1051" y="306" style="font:10px Open Sans">aplicaciones nativas para esta arquitectura.</text>
<clipPath id="clip25"><path d="M953,319 L1557,319 L1557,414 L953,414 Z M955,321 L955,347 L1141,347 L1141,321 Z M955,321 Z M955,321" /></clipPath>
<path d="M1048,360 L1048,409 C1048,411.2070313 1049.7929688,413 1052,413 L1057,413" style="fill:none;stroke:rgb(85,142,213)" clip-path="url(#clip25)" />
<clipPath id="clip26"><path d="M952,318 L1558,318 L1558,415 L952,415 L952,318 Z" /></clipPath>
<path d="M1048,347 L1048,360" style="fill:none;stroke:rgb(85,142,213)" clip-path="url(#clip26)" />
<clipPath id="clip27"><path d="M952,318 L1145,318 L1145,351 L952,351 L952,318 Z" /></clipPath>
<path d="M955,348 L1141,348 Z M955,348" style="fill:none;stroke:rgb(85,142,213);stroke-width:3" clip-path="url(#clip27)" />
<text x="966" y="336" style="font:10px Open Sans">Archivos de programa (x86)</text>
<clipPath id="clip28"><path d="M1042,349 L1055,349 L1055,362 L1042,362 L1042,349 Z" /></clipPath>
<path d="M1052.5,355 C1052.5,352.515625 1050.484375,350.5 1048,350.5 C1045.515625,350.5 1043.5,352.515625 1043.5,355 C1043.5,357.484375 1045.515625,359.5 1048,359.5 C1050.484375,359.5 1052.5,357.484375 1052.5,355 Z M1052.5,355" style="fill:rgb(250,250,250);stroke:none" clip-path="url(#clip28)" />
<clipPath id="clip29"><path d="M1042,349 L1055,349 L1055,362 L1042,362 L1042,349 Z" /></clipPath>
<path d="M1052.5,355 C1052.5,352.515625 1050.484375,350.5 1048,350.5 C1045.515625,350.5 1043.5,352.515625 1043.5,355 C1043.5,357.484375 1045.515625,359.5 1048,359.5 C1050.484375,359.5 1052.5,357.484375 1052.5,355 Z M1052.5,355" style="fill:none;stroke:rgb(85,142,213)" clip-path="url(#clip29)" />
<clipPath id="clip30"><path d="M1042,349 L1055,349 L1055,362 L1042,362 L1042,349 Z" /></clipPath>
<path d="M1046,355 L1050,355" style="fill:none;stroke:rgb(150,160,200)" clip-path="url(#clip30)" />
<clipPath id="clip31"><path d="M1055,368 L1558,368 L1558,415 L1055,415 L1055,368 Z" /></clipPath>
<path d="M1057,370 L1057,412 L1555,412 L1555,370 Z M1057,370" style="fill:rgb(255,255,255);stroke:none" clip-path="url(#clip31)" />
<clipPath id="clip32"><path d="M1055,368 L1558,368 L1558,415 L1055,415 L1055,368 Z" /></clipPath>
<path d="M1057,413 L1555,413 Z M1057,413" style="fill:none;stroke:rgb(85,142,213)" clip-path="url(#clip32)" />
<text x="1067" y="384" style="font:10px Open Sans">en los sistemas de 64 bits, es donde se guardan todas las aplicaciones instaladas </text>
<text x="1067" y="402" style="font:10px Open Sans">que no sean nativas de esta arquitectura (normalmente, las de 32 bits).</text>
<clipPath id="clip33"><path d="M953,415 L1560,415 L1560,510 L953,510 Z M955,417 L955,443 L1216,443 L1216,417 Z M955,417 Z M955,417" /></clipPath>
<path d="M1085.6289063,456 L1085.6289063,505 C1085.6289063,507.2070313 1087.421875,509 1089.6289063,509 L1095,509" style="fill:none;stroke:rgb(85,142,213)" clip-path="url(#clip33)" />
<clipPath id="clip34"><path d="M952,414 L1561,414 L1561,511 L952,511 L952,414 Z" /></clipPath>
<path d="M1085.5664063,443 L1085.6289063,456" style="fill:none;stroke:rgb(85,142,213)" clip-path="url(#clip34)" />
<clipPath id="clip35"><path d="M952,414 L1220,414 L1220,447 L952,447 L952,414 Z" /></clipPath>
<path d="M955,444 L1216,444 Z M955,444" style="fill:none;stroke:rgb(85,142,213);stroke-width:3" clip-path="url(#clip35)" />
<text x="966" y="432" style="font:10px Open Sans">PerfLogs (del inglés, Performance Logs): </text>
<clipPath id="clip36"><path d="M1080,445 L1093,445 L1093,458 L1080,458 L1080,445 Z" /></clipPath>
<path d="M1090.5,451 C1090.5,448.515625 1088.484375,446.5 1086,446.5 C1083.515625,446.5 1081.5,448.515625 1081.5,451 C1081.5,453.484375 1083.515625,455.5 1086,455.5 C1088.484375,455.5 1090.5,453.484375 1090.5,451 Z M1090.5,451" style="fill:rgb(250,250,250);stroke:none" clip-path="url(#clip36)" />
<clipPath id="clip37"><path d="M1080,445 L1093,445 L1093,458 L1080,458 L1080,445 Z" /></clipPath>
<path d="M1090.5,451 C1090.5,448.515625 1088.484375,446.5 1086,446.5 C1083.515625,446.5 1081.5,448.515625 1081.5,451 C1081.5,453.484375 1083.515625,455.5 1086,455.5 C1088.484375,455.5 1090.5,453.484375 1090.5,451 Z M1090.5,451" style="fill:none;stroke:rgb(85,142,213)" clip-path="url(#clip37)" />
<clipPath id="clip38"><path d="M1080,445 L1093,445 L1093,458 L1080,458 L1080,445 Z" /></clipPath>
<path d="M1084,451 L1088,451" style="fill:none;stroke:rgb(150,160,200)" clip-path="url(#clip38)" />
<clipPath id="clip39"><path d="M1093,464 L1561,464 L1561,511 L1093,511 L1093,464 Z" /></clipPath>
<path d="M1095,466 L1095,508 L1558,508 L1558,466 Z M1095,466" style="fill:rgb(255,255,255);stroke:none" clip-path="url(#clip39)" />
<clipPath id="clip40"><path d="M1093,464 L1561,464 L1561,511 L1093,511 L1093,464 Z" /></clipPath>
<path d="M1095,509 L1558,509 Z M1095,509" style="fill:none;stroke:rgb(85,142,213)" clip-path="url(#clip40)" />
<text x="1105" y="480" style="font:10px Open Sans">es la carpeta donde almacena Windows los registros de seguimiento (logs) </text>
<text x="1105" y="498" style="font:10px Open Sans">relacionados con la confiabilidad y el rendimiento del sistema.</text>
<clipPath id="clip41"><path d="M953,511 L1521,511 L1521,660 L953,660 Z M955,513 L955,539 L1030,539 L1030,513 Z M955,513 Z M955,513" /></clipPath>
<path d="M992.6289063,552 L992.6289063,655 C992.6289063,657.2070313 994.421875,659 996.6289063,659 L1002,659" style="fill:none;stroke:rgb(85,142,213)" clip-path="url(#clip41)" />
<clipPath id="clip42"><path d="M952,510 L1522,510 L1522,661 L952,661 L952,510 Z" /></clipPath>
<path d="M992.5664063,539 L992.6289063,552" style="fill:none;stroke:rgb(85,142,213)" clip-path="url(#clip42)" />
<clipPath id="clip43"><path d="M952,510 L1034,510 L1034,543 L952,543 L952,510 Z" /></clipPath>
<path d="M955,540 L1030,540 Z M955,540" style="fill:none;stroke:rgb(85,142,213);stroke-width:3" clip-path="url(#clip43)" />
<text x="966" y="528" style="font:10px Open Sans">Usuarios</text>
<clipPath id="clip44"><path d="M987,541 L1000,541 L1000,554 L987,554 L987,541 Z" /></clipPath>
<path d="M997.5,547 C997.5,544.515625 995.484375,542.5 993,542.5 C990.515625,542.5 988.5,544.515625 988.5,547 C988.5,549.484375 990.515625,551.5 993,551.5 C995.484375,551.5 997.5,549.484375 997.5,547 Z M997.5,547" style="fill:rgb(250,250,250);stroke:none" clip-path="url(#clip44)" />
<clipPath id="clip45"><path d="M987,541 L1000,541 L1000,554 L987,554 L987,541 Z" /></clipPath>
<path d="M997.5,547 C997.5,544.515625 995.484375,542.5 993,542.5 C990.515625,542.5 988.5,544.515625 988.5,547 C988.5,549.484375 990.515625,551.5 993,551.5 C995.484375,551.5 997.5,549.484375 997.5,547 Z M997.5,547" style="fill:none;stroke:rgb(85,142,213)" clip-path="url(#clip45)" />
<clipPath id="clip46"><path d="M987,541 L1000,541 L1000,554 L987,554 L987,541 Z" /></clipPath>
<path d="M991,547 L995,547" style="fill:none;stroke:rgb(150,160,200)" clip-path="url(#clip46)" />
<clipPath id="clip47"><path d="M1000,560 L1522,560 L1522,661 L1000,661 L1000,560 Z" /></clipPath>
<path d="M1002,562 L1002,658 L1519,658 L1519,562 Z M1002,562" style="fill:rgb(255,255,255);stroke:none" clip-path="url(#clip47)" />
<clipPath id="clip48"><path d="M1000,560 L1522,560 L1522,661 L1000,661 L1000,560 Z" /></clipPath>
<path d="M1002,659 L1519,659 Z M1002,659" style="fill:none;stroke:rgb(85,142,213)" clip-path="url(#clip48)" />
<text x="1012" y="576" style="font:10px Open Sans">En su interior tenemos una carpeta llamada Acceso público, que será accesible para </text>
<text x="1012" y="594" style="font:10px Open Sans">todos los usuarios del sistema, y que podrán utilizarla para intercambiar </text>
<text x="1012" y="612" style="font:10px Open Sans">información entre ellos. Además, encontraremos una carpeta para cada usuario del </text>
<text x="1012" y="630" style="font:10px Open Sans">sistema. En su interior se encuentra toda la información individual del usuario en </text>
<text x="1012" y="648" style="font:10px Open Sans">cuestión. </text>
<clipPath id="clip49"><path d="M953,661 L1496,661 L1496,738 L953,738 Z M955,663 L955,689 L1033,689 L1033,663 Z M955,663 Z M955,663" /></clipPath>
<path d="M994,702 L994,733 C994,735.2070313 995.7929688,737 998,737 L1003,737" style="fill:none;stroke:rgb(85,142,213)" clip-path="url(#clip49)" />
<clipPath id="clip50"><path d="M952,660 L1497,660 L1497,739 L952,739 L952,660 Z" /></clipPath>
<path d="M994,689 L994,702" style="fill:none;stroke:rgb(85,142,213)" clip-path="url(#clip50)" />
<clipPath id="clip51"><path d="M952,660 L1037,660 L1037,693 L952,693 L952,660 Z" /></clipPath>
<path d="M955,690 L1033,690 Z M955,690" style="fill:none;stroke:rgb(85,142,213);stroke-width:3" clip-path="url(#clip51)" />
<text x="966" y="678" style="font:10px Open Sans">Windows</text>
<clipPath id="clip52"><path d="M988,691 L1001,691 L1001,704 L988,704 L988,691 Z" /></clipPath>
<path d="M998.5,697 C998.5,694.515625 996.484375,692.5 994,692.5 C991.515625,692.5 989.5,694.515625 989.5,697 C989.5,699.484375 991.515625,701.5 994,701.5 C996.484375,701.5 998.5,699.484375 998.5,697 Z M998.5,697" style="fill:rgb(250,250,250);stroke:none" clip-path="url(#clip52)" />
<clipPath id="clip53"><path d="M988,691 L1001,691 L1001,704 L988,704 L988,691 Z" /></clipPath>
<path d="M998.5,697 C998.5,694.515625 996.484375,692.5 994,692.5 C991.515625,692.5 989.5,694.515625 989.5,697 C989.5,699.484375 991.515625,701.5 994,701.5 C996.484375,701.5 998.5,699.484375 998.5,697 Z M998.5,697" style="fill:none;stroke:rgb(85,142,213)" clip-path="url(#clip53)" />
<clipPath id="clip54"><path d="M988,691 L1001,691 L1001,704 L988,704 L988,691 Z" /></clipPath>
<path d="M992,697 L996,697" style="fill:none;stroke:rgb(150,160,200)" clip-path="url(#clip54)" />
<clipPath id="clip55"><path d="M1001,710 L1497,710 L1497,739 L1001,739 L1001,710 Z" /></clipPath>
<path d="M1003,712 L1003,736 L1494,736 L1494,712 Z M1003,712" style="fill:rgb(255,255,255);stroke:none" clip-path="url(#clip55)" />
<clipPath id="clip56"><path d="M1001,710 L1497,710 L1497,739 L1001,739 L1001,710 Z" /></clipPath>
<path d="M1003,737 L1494,737 Z M1003,737" style="fill:none;stroke:rgb(85,142,213)" clip-path="url(#clip56)" />
<text x="1013" y="726" style="font:10px Open Sans"> contiene todos los archivos relacionados con el sistema operativo y los drivers.</text>
<clipPath id="clip57"><path d="M15,226 L854,226 L854,1460 L15,1460 Z M786,227 C783.2382813,227 781,229.2382813 781,232 L781,263 C781,265.7617188 783.2382813,268 786,268 L847,268 C849.7617188,268 852,265.7617188 852,263 L852,232 C852,229.2382813 849.7617188,227 847,227 Z M786,227 Z M786,227" /></clipPath>
<path d="M816.6679688,281 L816.6679688,314 C816.6679688,316.2070313 814.875,318 812.6679688,318 L806,318" style="fill:none;stroke:rgb(85,142,213)" clip-path="url(#clip57)" />
<clipPath id="clip58"><path d="M15,226 L854,226 L854,1460 L15,1460 Z M786,227 C783.2382813,227 781,229.2382813 781,232 L781,263 C781,265.7617188 783.2382813,268 786,268 L847,268 C849.7617188,268 852,265.7617188 852,263 L852,232 C852,229.2382813 849.7617188,227 847,227 Z M786,227 Z M786,227" /></clipPath>
<path d="M816.6679688,281 L816.6679688,392 C816.6679688,394.2070313 814.875,396 812.6679688,396 L806,396" style="fill:none;stroke:rgb(85,142,213)" clip-path="url(#clip58)" />
<clipPath id="clip59"><path d="M15,226 L854,226 L854,1460 L15,1460 Z M786,227 C783.2382813,227 781,229.2382813 781,232 L781,263 C781,265.7617188 783.2382813,268 786,268 L847,268 C849.7617188,268 852,265.7617188 852,263 L852,232 C852,229.2382813 849.7617188,227 847,227 Z M786,227 Z M786,227" /></clipPath>
<path d="M816.6679688,281 L816.6679688,488 C816.6679688,490.2070313 814.875,492 812.6679688,492 L806,492" style="fill:none;stroke:rgb(85,142,213)" clip-path="url(#clip59)" />
<clipPath id="clip60"><path d="M15,226 L854,226 L854,1460 L15,1460 Z M786,227 C783.2382813,227 781,229.2382813 781,232 L781,263 C781,265.7617188 783.2382813,268 786,268 L847,268 C849.7617188,268 852,265.7617188 852,263 L852,232 C852,229.2382813 849.7617188,227 847,227 Z M786,227 Z M786,227" /></clipPath>
<path d="M816.6679688,281 L816.6679688,566 C816.6679688,568.2070313 814.875,570 812.6679688,570 L806,570" style="fill:none;stroke:rgb(85,142,213)" clip-path="url(#clip60)" />
<clipPath id="clip61"><path d="M15,226 L854,226 L854,1460 L15,1460 Z M786,227 C783.2382813,227 781,229.2382813 781,232 L781,263 C781,265.7617188 783.2382813,268 786,268 L847,268 C849.7617188,268 852,265.7617188 852,263 L852,232 C852,229.2382813 849.7617188,227 847,227 Z M786,227 Z M786,227" /></clipPath>
<path d="M816.6679688,281 L816.6679688,644 C816.6679688,646.2070313 814.875,648 812.6679688,648 L806,648" style="fill:none;stroke:rgb(85,142,213)" clip-path="url(#clip61)" />
<clipPath id="clip62"><path d="M15,226 L854,226 L854,1460 L15,1460 Z M786,227 C783.2382813,227 781,229.2382813 781,232 L781,263 C781,265.7617188 783.2382813,268 786,268 L847,268 C849.7617188,268 852,265.7617188 852,263 L852,232 C852,229.2382813 849.7617188,227 847,227 Z M786,227 Z M786,227" /></clipPath>
<path d="M816.6679688,281 L816.6679688,740 C816.6679688,742.2070313 814.875,744 812.6679688,744 L806,744" style="fill:none;stroke:rgb(85,142,213)" clip-path="url(#clip62)" />
<clipPath id="clip63"><path d="M15,226 L854,226 L854,1460 L15,1460 Z M786,227 C783.2382813,227 781,229.2382813 781,232 L781,263 C781,265.7617188 783.2382813,268 786,268 L847,268 C849.7617188,268 852,265.7617188 852,263 L852,232 C852,229.2382813 849.7617188,227 847,227 Z M786,227 Z M786,227" /></clipPath>
<path d="M816.6679688,281 L816.6679688,836 C816.6679688,838.2070313 814.875,840 812.6679688,840 L806,840" style="fill:none;stroke:rgb(85,142,213)" clip-path="url(#clip63)" />
<clipPath id="clip64"><path d="M15,226 L854,226 L854,1460 L15,1460 Z M786,227 C783.2382813,227 781,229.2382813 781,232 L781,263 C781,265.7617188 783.2382813,268 786,268 L847,268 C849.7617188,268 852,265.7617188 852,263 L852,232 C852,229.2382813 849.7617188,227 847,227 Z M786,227 Z M786,227" /></clipPath>
<path d="M816.6679688,281 L816.6679688,950 C816.6679688,952.2070313 814.875,954 812.6679688,954 L806,954" style="fill:none;stroke:rgb(85,142,213)" clip-path="url(#clip64)" />
<clipPath id="clip65"><path d="M15,226 L854,226 L854,1460 L15,1460 Z M786,227 C783.2382813,227 781,229.2382813 781,232 L781,263 C781,265.7617188 783.2382813,268 786,268 L847,268 C849.7617188,268 852,265.7617188 852,263 L852,232 C852,229.2382813 849.7617188,227 847,227 Z M786,227 Z M786,227" /></clipPath>
<path d="M816.6679688,281 L816.6679688,1028 C816.6679688,1030.2070313 814.875,1032 812.6679688,1032 L806,1032" style="fill:none;stroke:rgb(85,142,213)" clip-path="url(#clip65)" />
<clipPath id="clip66"><path d="M15,226 L854,226 L854,1460 L15,1460 Z M786,227 C783.2382813,227 781,229.2382813 781,232 L781,263 C781,265.7617188 783.2382813,268 786,268 L847,268 C849.7617188,268 852,265.7617188 852,263 L852,232 C852,229.2382813 849.7617188,227 847,227 Z M786,227 Z M786,227" /></clipPath>
<path d="M816.6679688,281 L816.6679688,1106 C816.6679688,1108.2070313 814.875,1110 812.6679688,1110 L806,1110" style="fill:none;stroke:rgb(85,142,213)" clip-path="url(#clip66)" />
<clipPath id="clip67"><path d="M15,226 L854,226 L854,1460 L15,1460 Z M786,227 C783.2382813,227 781,229.2382813 781,232 L781,263 C781,265.7617188 783.2382813,268 786,268 L847,268 C849.7617188,268 852,265.7617188 852,263 L852,232 C852,229.2382813 849.7617188,227 847,227 Z M786,227 Z M786,227" /></clipPath>
<path d="M816.6679688,281 L816.6679688,1202 C816.6679688,1204.2070313 814.875,1206 812.6679688,1206 L806,1206" style="fill:none;stroke:rgb(85,142,213)" clip-path="url(#clip67)" />
<clipPath id="clip68"><path d="M15,226 L854,226 L854,1460 L15,1460 Z M786,227 C783.2382813,227 781,229.2382813 781,232 L781,263 C781,265.7617188 783.2382813,268 786,268 L847,268 C849.7617188,268 852,265.7617188 852,263 L852,232 C852,229.2382813 849.7617188,227 847,227 Z M786,227 Z M786,227" /></clipPath>
<path d="M816.6679688,281 L816.6679688,1344 C816.6679688,1346.2070313 814.875,1348 812.6679688,1348 L806,1348" style="fill:none;stroke:rgb(85,142,213)" clip-path="url(#clip68)" />
<clipPath id="clip69"><path d="M14,225 L855,225 L855,1461 L14,1461 L14,225 Z" /></clipPath>
<path d="M816.6015625,268 L816.6679688,281" style="fill:none;stroke:rgb(85,142,213)" clip-path="url(#clip69)" />
<clipPath id="clip70"><path d="M779,225 L855,225 L855,271 L779,271 L779,225 Z" /></clipPath>
<path d="M786,227 C783.2382813,227 781,229.2382813 781,232 L781,263 C781,265.7617188 783.2382813,268 786,268 L847,268 C849.7617188,268 852,265.7617188 852,263 L852,232 C852,229.2382813 849.7617188,227 847,227 Z M786,227" style="fill:rgb(220,230,242);stroke:none" clip-path="url(#clip70)" />
<clipPath id="clip71"><path d="M779,225 L855,225 L855,271 L779,271 L779,225 Z" /></clipPath>
<path d="M786,227 C783.2382813,227 781,229.2382813 781,232 L781,263 C781,265.7617188 783.2382813,268 786,268 L847,268 C849.7617188,268 852,265.7617188 852,263 L852,232 C852,229.2382813 849.7617188,227 847,227 Z M786,227" style="fill:none;stroke:rgb(85,142,213);stroke-width:2" clip-path="url(#clip71)" />
<text x="796" y="250" style="font:13px Open Sans">Linux</text>
<clipPath id="clip72"><path d="M810,269 L823,269 L823,282 L810,282 L810,269 Z" /></clipPath>
<path d="M820.5,275 C820.5,272.515625 818.484375,270.5 816,270.5 C813.515625,270.5 811.5,272.515625 811.5,275 C811.5,277.484375 813.515625,279.5 816,279.5 C818.484375,279.5 820.5,277.484375 820.5,275 Z M820.5,275" style="fill:rgb(250,250,250);stroke:none" clip-path="url(#clip72)" />
<clipPath id="clip73"><path d="M810,269 L823,269 L823,282 L810,282 L810,269 Z" /></clipPath>
<path d="M820.5,275 C820.5,272.515625 818.484375,270.5 816,270.5 C813.515625,270.5 811.5,272.515625 811.5,275 C811.5,277.484375 813.515625,279.5 816,279.5 C818.484375,279.5 820.5,277.484375 820.5,275 Z M820.5,275" style="fill:none;stroke:rgb(85,142,213)" clip-path="url(#clip73)" />
<clipPath id="clip74"><path d="M810,269 L823,269 L823,282 L810,282 L810,269 Z" /></clipPath>
<path d="M814,275 L818,275" style="fill:none;stroke:rgb(150,160,200)" clip-path="url(#clip74)" />
<clipPath id="clip75"><path d="M431,289 L809,289 L809,366 L431,366 Z M764,291 L764,317 L806,317 L806,291 Z M764,291 Z M764,291" /></clipPath>
<path d="M785,330 L785,361 C785,363.2070313 783.2070313,365 781,365 L775,365" style="fill:none;stroke:rgb(85,142,213)" clip-path="url(#clip75)" />
<clipPath id="clip76"><path d="M430,288 L810,288 L810,367 L430,367 L430,288 Z" /></clipPath>
<path d="M785,317 L785,330" style="fill:none;stroke:rgb(85,142,213)" clip-path="url(#clip76)" />
<clipPath id="clip77"><path d="M761,288 L810,288 L810,321 L761,321 L761,288 Z" /></clipPath>
<path d="M764,318 L806,318 Z M764,318" style="fill:none;stroke:rgb(85,142,213);stroke-width:3" clip-path="url(#clip77)" />
<text x="776" y="306" style="font:10px Open Sans">bin</text>
<clipPath id="clip78"><path d="M778,319 L791,319 L791,332 L778,332 L778,319 Z" /></clipPath>
<path d="M788.5,325 C788.5,322.515625 786.484375,320.5 784,320.5 C781.515625,320.5 779.5,322.515625 779.5,325 C779.5,327.484375 781.515625,329.5 784,329.5 C786.484375,329.5 788.5,327.484375 788.5,325 Z M788.5,325" style="fill:rgb(250,250,250);stroke:none" clip-path="url(#clip78)" />
<clipPath id="clip79"><path d="M778,319 L791,319 L791,332 L778,332 L778,319 Z" /></clipPath>
<path d="M788.5,325 C788.5,322.515625 786.484375,320.5 784,320.5 C781.515625,320.5 779.5,322.515625 779.5,325 C779.5,327.484375 781.515625,329.5 784,329.5 C786.484375,329.5 788.5,327.484375 788.5,325 Z M788.5,325" style="fill:none;stroke:rgb(85,142,213)" clip-path="url(#clip79)" />
<clipPath id="clip80"><path d="M778,319 L791,319 L791,332 L778,332 L778,319 Z" /></clipPath>
<path d="M782,325 L786,325" style="fill:none;stroke:rgb(150,160,200)" clip-path="url(#clip80)" />
<clipPath id="clip81"><path d="M430,338 L778,338 L778,367 L430,367 L430,338 Z" /></clipPath>
<path d="M432,340 L432,364 L775,364 L775,340 Z M432,340" style="fill:rgb(255,255,255);stroke:none" clip-path="url(#clip81)" />
<clipPath id="clip82"><path d="M430,338 L778,338 L778,367 L430,367 L430,338 Z" /></clipPath>
<path d="M432,365 L775,365 Z M432,365" style="fill:none;stroke:rgb(85,142,213)" clip-path="url(#clip82)" />
<text x="443" y="354" style="font:10px Open Sans">Guarda los ejecutables fundamentales para el sistema.</text>
<clipPath id="clip83"><path d="M277,367 L809,367 L809,462 L277,462 Z M754,369 L754,395 L806,395 L806,369 Z M754,369 Z M754,369" /></clipPath>
<path d="M780,408 L780,457 C780,459.2070313 778.2070313,461 776,461 L770,461" style="fill:none;stroke:rgb(85,142,213)" clip-path="url(#clip83)" />
<clipPath id="clip84"><path d="M276,366 L810,366 L810,463 L276,463 L276,366 Z" /></clipPath>
<path d="M780,395 L780,408" style="fill:none;stroke:rgb(85,142,213)" clip-path="url(#clip84)" />
<clipPath id="clip85"><path d="M751,366 L810,366 L810,399 L751,399 L751,366 Z" /></clipPath>
<path d="M754,396 L806,396 Z M754,396" style="fill:none;stroke:rgb(85,142,213);stroke-width:3" clip-path="url(#clip85)" />
<text x="766" y="384" style="font:10px Open Sans">boot</text>
<clipPath id="clip86"><path d="M773,397 L786,397 L786,410 L773,410 L773,397 Z" /></clipPath>
<path d="M783.5,403 C783.5,400.515625 781.484375,398.5 779,398.5 C776.515625,398.5 774.5,400.515625 774.5,403 C774.5,405.484375 776.515625,407.5 779,407.5 C781.484375,407.5 783.5,405.484375 783.5,403 Z M783.5,403" style="fill:rgb(250,250,250);stroke:none" clip-path="url(#clip86)" />
<clipPath id="clip87"><path d="M773,397 L786,397 L786,410 L773,410 L773,397 Z" /></clipPath>
<path d="M783.5,403 C783.5,400.515625 781.484375,398.5 779,398.5 C776.515625,398.5 774.5,400.515625 774.5,403 C774.5,405.484375 776.515625,407.5 779,407.5 C781.484375,407.5 783.5,405.484375 783.5,403 Z M783.5,403" style="fill:none;stroke:rgb(85,142,213)" clip-path="url(#clip87)" />
<clipPath id="clip88"><path d="M773,397 L786,397 L786,410 L773,410 L773,397 Z" /></clipPath>
<path d="M777,403 L781,403" style="fill:none;stroke:rgb(150,160,200)" clip-path="url(#clip88)" />
<clipPath id="clip89"><path d="M276,416 L773,416 L773,463 L276,463 L276,416 Z" /></clipPath>
<path d="M278,418 L278,460 L770,460 L770,418 Z M278,418" style="fill:rgb(255,255,255);stroke:none" clip-path="url(#clip89)" />
<clipPath id="clip90"><path d="M276,416 L773,416 L773,463 L276,463 L276,416 Z" /></clipPath>
<path d="M278,461 L770,461 Z M278,461" style="fill:none;stroke:rgb(85,142,213)" clip-path="url(#clip90)" />
<text x="289" y="432" style="font:10px Open Sans">Contiene los archivos necesarios para arrancar el sistema (incluye la imagen del </text>
<text x="289" y="450" style="font:10px Open Sans">núcleo)</text>
<clipPath id="clip91"><path d="M507,463 L809,463 L809,540 L507,540 Z M761,465 L761,491 L806,491 L806,465 Z M761,465 Z M761,465" /></clipPath>
<path d="M783.6289063,504 L783.6289063,535 C783.6289063,537.2070313 781.8398438,539 779.6289063,539 L774,539" style="fill:none;stroke:rgb(85,142,213)" clip-path="url(#clip91)" />
<clipPath id="clip92"><path d="M506,462 L810,462 L810,541 L506,541 L506,462 Z" /></clipPath>
<path d="M783.5664063,491 L783.6289063,504" style="fill:none;stroke:rgb(85,142,213)" clip-path="url(#clip92)" />
<clipPath id="clip93"><path d="M758,462 L810,462 L810,495 L758,495 L758,462 Z" /></clipPath>
<path d="M761,492 L806,492 Z M761,492" style="fill:none;stroke:rgb(85,142,213);stroke-width:3" clip-path="url(#clip93)" />
<text x="773" y="480" style="font:10px Open Sans">dev</text>
<clipPath id="clip94"><path d="M777,493 L790,493 L790,506 L777,506 L777,493 Z" /></clipPath>
<path d="M787.5,499 C787.5,496.515625 785.484375,494.5 783,494.5 C780.515625,494.5 778.5,496.515625 778.5,499 C778.5,501.484375 780.515625,503.5 783,503.5 C785.484375,503.5 787.5,501.484375 787.5,499 Z M787.5,499" style="fill:rgb(250,250,250);stroke:none" clip-path="url(#clip94)" />
<clipPath id="clip95"><path d="M777,493 L790,493 L790,506 L777,506 L777,493 Z" /></clipPath>
<path d="M787.5,499 C787.5,496.515625 785.484375,494.5 783,494.5 C780.515625,494.5 778.5,496.515625 778.5,499 C778.5,501.484375 780.515625,503.5 783,503.5 C785.484375,503.5 787.5,501.484375 787.5,499 Z M787.5,499" style="fill:none;stroke:rgb(85,142,213)" clip-path="url(#clip95)" />
<clipPath id="clip96"><path d="M777,493 L790,493 L790,506 L777,506 L777,493 Z" /></clipPath>
<path d="M781,499 L785,499" style="fill:none;stroke:rgb(150,160,200)" clip-path="url(#clip96)" />
<clipPath id="clip97"><path d="M506,512 L777,512 L777,541 L506,541 L506,512 Z" /></clipPath>
<path d="M508,514 L508,538 L774,538 L774,514 Z M508,514" style="fill:rgb(255,255,255);stroke:none" clip-path="url(#clip97)" />
<clipPath id="clip98"><path d="M506,512 L777,512 L777,541 L506,541 L506,512 Z" /></clipPath>
<path d="M508,539 L774,539 Z M508,539" style="fill:none;stroke:rgb(85,142,213)" clip-path="url(#clip98)" />
<text x="519" y="528" style="font:10px Open Sans">Incluye los controladores de dispositivos.</text>
<clipPath id="clip99"><path d="M461,541 L809,541 L809,618 L461,618 Z M765,543 L765,569 L806,569 L806,543 Z M765,543 Z M765,543" /></clipPath>
<path d="M785.6289063,582 L785.6289063,613 C785.6289063,615.2070313 783.8398438,617 781.6289063,617 L776,617" style="fill:none;stroke:rgb(85,142,213)" clip-path="url(#clip99)" />
<clipPath id="clip100"><path d="M460,540 L810,540 L810,619 L460,619 L460,540 Z" /></clipPath>
<path d="M785.5664063,569 L785.6289063,582" style="fill:none;stroke:rgb(85,142,213)" clip-path="url(#clip100)" />
<clipPath id="clip101"><path d="M762,540 L810,540 L810,573 L762,573 L762,540 Z" /></clipPath>
<path d="M765,570 L806,570 Z M765,570" style="fill:none;stroke:rgb(85,142,213);stroke-width:3" clip-path="url(#clip101)" />
<text x="777" y="558" style="font:10px Open Sans">etc</text>
<clipPath id="clip102"><path d="M779,571 L792,571 L792,584 L779,584 L779,571 Z" /></clipPath>
<path d="M789.5,577 C789.5,574.515625 787.484375,572.5 785,572.5 C782.515625,572.5 780.5,574.515625 780.5,577 C780.5,579.484375 782.515625,581.5 785,581.5 C787.484375,581.5 789.5,579.484375 789.5,577 Z M789.5,577" style="fill:rgb(250,250,250);stroke:none" clip-path="url(#clip102)" />
<clipPath id="clip103"><path d="M779,571 L792,571 L792,584 L779,584 L779,571 Z" /></clipPath>
<path d="M789.5,577 C789.5,574.515625 787.484375,572.5 785,572.5 C782.515625,572.5 780.5,574.515625 780.5,577 C780.5,579.484375 782.515625,581.5 785,581.5 C787.484375,581.5 789.5,579.484375 789.5,577 Z M789.5,577" style="fill:none;stroke:rgb(85,142,213)" clip-path="url(#clip103)" />
<clipPath id="clip104"><path d="M779,571 L792,571 L792,584 L779,584 L779,571 Z" /></clipPath>
<path d="M783,577 L787,577" style="fill:none;stroke:rgb(150,160,200)" clip-path="url(#clip104)" />
<clipPath id="clip105"><path d="M460,590 L779,590 L779,619 L460,619 L460,590 Z" /></clipPath>
<path d="M462,592 L462,616 L776,616 L776,592 Z M462,592" style="fill:rgb(255,255,255);stroke:none" clip-path="url(#clip105)" />
<clipPath id="clip106"><path d="M460,590 L779,590 L779,619 L460,619 L460,590 Z" /></clipPath>
<path d="M462,617 L776,617 Z M462,617" style="fill:none;stroke:rgb(85,142,213)" clip-path="url(#clip106)" />
<text x="473" y="606" style="font:10px Open Sans">Guarda los archivos de configuración del sistema.</text>
<clipPath id="clip107"><path d="M270,619 L809,619 L809,714 L270,714 Z M748,621 L748,647 L806,647 L806,621 Z M748,621 Z M748,621" /></clipPath>
<path d="M777,660 L777,709 C777,711.2070313 775.2070313,713 773,713 L767,713" style="fill:none;stroke:rgb(85,142,213)" clip-path="url(#clip107)" />
<clipPath id="clip108"><path d="M269,618 L810,618 L810,715 L269,715 L269,618 Z" /></clipPath>
<path d="M777,647 L777,660" style="fill:none;stroke:rgb(85,142,213)" clip-path="url(#clip108)" />
<clipPath id="clip109"><path d="M745,618 L810,618 L810,651 L745,651 L745,618 Z" /></clipPath>
<path d="M748,648 L806,648 Z M748,648" style="fill:none;stroke:rgb(85,142,213);stroke-width:3" clip-path="url(#clip109)" />
<text x="760" y="636" style="font:10px Open Sans">home</text>
<clipPath id="clip110"><path d="M770,649 L783,649 L783,662 L770,662 L770,649 Z" /></clipPath>
<path d="M780.5,655 C780.5,652.515625 778.484375,650.5 776,650.5 C773.515625,650.5 771.5,652.515625 771.5,655 C771.5,657.484375 773.515625,659.5 776,659.5 C778.484375,659.5 780.5,657.484375 780.5,655 Z M780.5,655" style="fill:rgb(250,250,250);stroke:none" clip-path="url(#clip110)" />
<clipPath id="clip111"><path d="M770,649 L783,649 L783,662 L770,662 L770,649 Z" /></clipPath>
<path d="M780.5,655 C780.5,652.515625 778.484375,650.5 776,650.5 C773.515625,650.5 771.5,652.515625 771.5,655 C771.5,657.484375 773.515625,659.5 776,659.5 C778.484375,659.5 780.5,657.484375 780.5,655 Z M780.5,655" style="fill:none;stroke:rgb(85,142,213)" clip-path="url(#clip111)" />
<clipPath id="clip112"><path d="M770,649 L783,649 L783,662 L770,662 L770,649 Z" /></clipPath>
<path d="M774,655 L778,655" style="fill:none;stroke:rgb(150,160,200)" clip-path="url(#clip112)" />
<clipPath id="clip113"><path d="M269,668 L770,668 L770,715 L269,715 L269,668 Z" /></clipPath>
<path d="M271,670 L271,712 L767,712 L767,670 Z M271,670" style="fill:rgb(255,255,255);stroke:none" clip-path="url(#clip113)" />
<clipPath id="clip114"><path d="M269,668 L770,668 L770,715 L269,715 L269,668 Z" /></clipPath>
<path d="M271,713 L767,713 Z M271,713" style="fill:none;stroke:rgb(85,142,213)" clip-path="url(#clip114)" />
<text x="282" y="684" style="font:10px Open Sans">Contiene un directorio por cada usuario del sistema. En su interior se encuentra </text>
<text x="282" y="702" style="font:10px Open Sans">toda la información individual del usuario .</text>
<clipPath id="clip115"><path d="M273,715 L809,715 L809,810 L273,810 Z M769,717 L769,743 L806,743 L806,717 Z M769,717 Z M769,717" /></clipPath>
<path d="M787.6289063,756 L787.6289063,805 C787.6289063,807.2070313 785.8398438,809 783.6289063,809 L778,809" style="fill:none;stroke:rgb(85,142,213)" clip-path="url(#clip115)" />
<clipPath id="clip116"><path d="M272,714 L810,714 L810,811 L272,811 L272,714 Z" /></clipPath>
<path d="M787.5664063,743 L787.6289063,756" style="fill:none;stroke:rgb(85,142,213)" clip-path="url(#clip116)" />
<clipPath id="clip117"><path d="M766,714 L810,714 L810,747 L766,747 L766,714 Z" /></clipPath>
<path d="M769,744 L806,744 Z M769,744" style="fill:none;stroke:rgb(85,142,213);stroke-width:3" clip-path="url(#clip117)" />
<text x="781" y="732" style="font:10px Open Sans">lib</text>
<clipPath id="clip118"><path d="M781,745 L794,745 L794,758 L781,758 L781,745 Z" /></clipPath>
<path d="M791.5,751 C791.5,748.515625 789.484375,746.5 787,746.5 C784.515625,746.5 782.5,748.515625 782.5,751 C782.5,753.484375 784.515625,755.5 787,755.5 C789.484375,755.5 791.5,753.484375 791.5,751 Z M791.5,751" style="fill:rgb(250,250,250);stroke:none" clip-path="url(#clip118)" />
<clipPath id="clip119"><path d="M781,745 L794,745 L794,758 L781,758 L781,745 Z" /></clipPath>
<path d="M791.5,751 C791.5,748.515625 789.484375,746.5 787,746.5 C784.515625,746.5 782.5,748.515625 782.5,751 C782.5,753.484375 784.515625,755.5 787,755.5 C789.484375,755.5 791.5,753.484375 791.5,751 Z M791.5,751" style="fill:none;stroke:rgb(85,142,213)" clip-path="url(#clip119)" />
<clipPath id="clip120"><path d="M781,745 L794,745 L794,758 L781,758 L781,745 Z" /></clipPath>
<path d="M785,751 L789,751" style="fill:none;stroke:rgb(150,160,200)" clip-path="url(#clip120)" />
<clipPath id="clip121"><path d="M272,764 L781,764 L781,811 L272,811 L272,764 Z" /></clipPath>
<path d="M274,766 L274,808 L778,808 L778,766 Z M274,766" style="fill:rgb(255,255,255);stroke:none" clip-path="url(#clip121)" />
<clipPath id="clip122"><path d="M272,764 L781,764 L781,811 L272,811 L272,764 Z" /></clipPath>
<path d="M274,809 L778,809 Z M274,809" style="fill:none;stroke:rgb(85,142,213)" clip-path="url(#clip122)" />
<text x="285" y="780" style="font:10px Open Sans">Contiene librerías de uso común para distintos programas (evitan la redundancia </text>
<text x="285" y="798" style="font:10px Open Sans">de código).</text>
<clipPath id="clip123"><path d="M254,811 L809,811 L809,924 L254,924 Z M746,813 L746,839 L806,839 L806,813 Z M746,813 Z M746,813" /></clipPath>
<path d="M776,852 L776,919 C776,921.2070313 774.2070313,923 772,923 L766,923" style="fill:none;stroke:rgb(85,142,213)" clip-path="url(#clip123)" />
<clipPath id="clip124"><path d="M253,810 L810,810 L810,925 L253,925 L253,810 Z" /></clipPath>
<path d="M776,839 L776,852" style="fill:none;stroke:rgb(85,142,213)" clip-path="url(#clip124)" />
<clipPath id="clip125"><path d="M743,810 L810,810 L810,843 L743,843 L743,810 Z" /></clipPath>
<path d="M746,840 L806,840 Z M746,840" style="fill:none;stroke:rgb(85,142,213);stroke-width:3" clip-path="url(#clip125)" />
<text x="758" y="828" style="font:10px Open Sans">media</text>
<clipPath id="clip126"><path d="M769,841 L782,841 L782,854 L769,854 L769,841 Z" /></clipPath>
<path d="M779.5,847 C779.5,844.515625 777.484375,842.5 775,842.5 C772.515625,842.5 770.5,844.515625 770.5,847 C770.5,849.484375 772.515625,851.5 775,851.5 C777.484375,851.5 779.5,849.484375 779.5,847 Z M779.5,847" style="fill:rgb(250,250,250);stroke:none" clip-path="url(#clip126)" />
<clipPath id="clip127"><path d="M769,841 L782,841 L782,854 L769,854 L769,841 Z" /></clipPath>
<path d="M779.5,847 C779.5,844.515625 777.484375,842.5 775,842.5 C772.515625,842.5 770.5,844.515625 770.5,847 C770.5,849.484375 772.515625,851.5 775,851.5 C777.484375,851.5 779.5,849.484375 779.5,847 Z M779.5,847" style="fill:none;stroke:rgb(85,142,213)" clip-path="url(#clip127)" />
<clipPath id="clip128"><path d="M769,841 L782,841 L782,854 L769,854 L769,841 Z" /></clipPath>
<path d="M773,847 L777,847" style="fill:none;stroke:rgb(150,160,200)" clip-path="url(#clip128)" />
<clipPath id="clip129"><path d="M253,860 L769,860 L769,925 L253,925 L253,860 Z" /></clipPath>
<path d="M255,862 L255,922 L766,922 L766,862 Z M255,862" style="fill:rgb(255,255,255);stroke:none" clip-path="url(#clip129)" />
<clipPath id="clip130"><path d="M253,860 L769,860 L769,925 L253,925 L253,860 Z" /></clipPath>
<path d="M255,923 L766,923 Z M255,923" style="fill:none;stroke:rgb(85,142,213)" clip-path="url(#clip130)" />
<text x="266" y="876" style="font:10px Open Sans">Contiene una subcarpeta por cada dispositivo externo que se haya montado en el </text>
<text x="266" y="894" style="font:10px Open Sans">sistema. Dentro de esa subcarpeta encontraremos el árbol de directorios del </text>
<text x="266" y="912" style="font:10px Open Sans">dispositivo correspondiente.</text>
<clipPath id="clip131"><path d="M432,925 L809,925 L809,1002 L432,1002 Z M758,927 L758,953 L806,953 L806,927 Z M758,927 Z M758,927" /></clipPath>
<path d="M782,966 L782,997 C782,999.2070313 780.2070313,1001 778,1001 L772,1001" style="fill:none;stroke:rgb(85,142,213)" clip-path="url(#clip131)" />
<clipPath id="clip132"><path d="M431,924 L810,924 L810,1003 L431,1003 L431,924 Z" /></clipPath>
<path d="M782,953 L782,966" style="fill:none;stroke:rgb(85,142,213)" clip-path="url(#clip132)" />
<clipPath id="clip133"><path d="M755,924 L810,924 L810,957 L755,957 L755,924 Z" /></clipPath>
<path d="M758,954 L806,954 Z M758,954" style="fill:none;stroke:rgb(85,142,213);stroke-width:3" clip-path="url(#clip133)" />
<text x="770" y="942" style="font:10px Open Sans">sbin</text>
<clipPath id="clip134"><path d="M775,955 L788,955 L788,968 L775,968 L775,955 Z" /></clipPath>
<path d="M785.5,961 C785.5,958.515625 783.484375,956.5 781,956.5 C778.515625,956.5 776.5,958.515625 776.5,961 C776.5,963.484375 778.515625,965.5 781,965.5 C783.484375,965.5 785.5,963.484375 785.5,961 Z M785.5,961" style="fill:rgb(250,250,250);stroke:none" clip-path="url(#clip134)" />
<clipPath id="clip135"><path d="M775,955 L788,955 L788,968 L775,968 L775,955 Z" /></clipPath>
<path d="M785.5,961 C785.5,958.515625 783.484375,956.5 781,956.5 C778.515625,956.5 776.5,958.515625 776.5,961 C776.5,963.484375 778.515625,965.5 781,965.5 C783.484375,965.5 785.5,963.484375 785.5,961 Z M785.5,961" style="fill:none;stroke:rgb(85,142,213)" clip-path="url(#clip135)" />
<clipPath id="clip136"><path d="M775,955 L788,955 L788,968 L775,968 L775,955 Z" /></clipPath>
<path d="M779,961 L783,961" style="fill:none;stroke:rgb(150,160,200)" clip-path="url(#clip136)" />
<clipPath id="clip137"><path d="M431,974 L775,974 L775,1003 L431,1003 L431,974 Z" /></clipPath>
<path d="M433,976 L433,1000 L772,1000 L772,976 Z M433,976" style="fill:rgb(255,255,255);stroke:none" clip-path="url(#clip137)" />
<clipPath id="clip138"><path d="M431,974 L775,974 L775,1003 L431,1003 L431,974 Z" /></clipPath>
<path d="M433,1001 L772,1001 Z M433,1001" style="fill:none;stroke:rgb(85,142,213)" clip-path="url(#clip138)" />
<text x="444" y="990" style="font:10px Open Sans"> Incluye comandos específicos para la administración.</text>
<clipPath id="clip139"><path d="M309,1003 L809,1003 L809,1080 L309,1080 Z M758,1005 L758,1031 L806,1031 L806,1005 Z M758,1005 Z M758,1005" /></clipPath>
<path d="M782,1044 L782,1075 C782,1077.2070313 780.2070313,1079 778,1079 L772,1079" style="fill:none;stroke:rgb(85,142,213)" clip-path="url(#clip139)" />
<clipPath id="clip140"><path d="M308,1002 L810,1002 L810,1081 L308,1081 L308,1002 Z" /></clipPath>
<path d="M782,1031 L782,1044" style="fill:none;stroke:rgb(85,142,213)" clip-path="url(#clip140)" />
<clipPath id="clip141"><path d="M755,1002 L810,1002 L810,1035 L755,1035 L755,1002 Z" /></clipPath>
<path d="M758,1032 L806,1032 Z M758,1032" style="fill:none;stroke:rgb(85,142,213);stroke-width:3" clip-path="url(#clip141)" />
<text x="770" y="1020" style="font:10px Open Sans">tmp</text>
<clipPath id="clip142"><path d="M775,1033 L788,1033 L788,1046 L775,1046 L775,1033 Z" /></clipPath>
<path d="M785.5,1039 C785.5,1036.515625 783.484375,1034.5 781,1034.5 C778.515625,1034.5 776.5,1036.515625 776.5,1039 C776.5,1041.484375 778.515625,1043.5 781,1043.5 C783.484375,1043.5 785.5,1041.484375 785.5,1039 Z M785.5,1039" style="fill:rgb(250,250,250);stroke:none" clip-path="url(#clip142)" />
<clipPath id="clip143"><path d="M775,1033 L788,1033 L788,1046 L775,1046 L775,1033 Z" /></clipPath>
<path d="M785.5,1039 C785.5,1036.515625 783.484375,1034.5 781,1034.5 C778.515625,1034.5 776.5,1036.515625 776.5,1039 C776.5,1041.484375 778.515625,1043.5 781,1043.5 C783.484375,1043.5 785.5,1041.484375 785.5,1039 Z M785.5,1039" style="fill:none;stroke:rgb(85,142,213)" clip-path="url(#clip143)" />
<clipPath id="clip144"><path d="M775,1033 L788,1033 L788,1046 L775,1046 L775,1033 Z" /></clipPath>
<path d="M779,1039 L783,1039" style="fill:none;stroke:rgb(150,160,200)" clip-path="url(#clip144)" />
<clipPath id="clip145"><path d="M308,1052 L775,1052 L775,1081 L308,1081 L308,1052 Z" /></clipPath>
<path d="M310,1054 L310,1078 L772,1078 L772,1054 Z M310,1054" style="fill:rgb(255,255,255);stroke:none" clip-path="url(#clip145)" />
<clipPath id="clip146"><path d="M308,1052 L775,1052 L775,1081 L308,1081 L308,1052 Z" /></clipPath>
<path d="M310,1079 L772,1079 Z M310,1079" style="fill:none;stroke:rgb(85,142,213)" clip-path="url(#clip146)" />
<text x="321" y="1068" style="font:10px Open Sans">Lo utilizan los programas para guardar datos que luego serán desechados.</text>
<clipPath id="clip147"><path d="M280,1081 L809,1081 L809,1176 L280,1176 Z M757,1083 L757,1109 L806,1109 L806,1083 Z M757,1083 Z M757,1083" /></clipPath>
<path d="M781.6289063,1122 L781.6289063,1171 C781.6289063,1173.2070313 779.8398438,1175 777.6289063,1175 L772,1175" style="fill:none;stroke:rgb(85,142,213)" clip-path="url(#clip147)" />
<clipPath id="clip148"><path d="M279,1080 L810,1080 L810,1177 L279,1177 L279,1080 Z" /></clipPath>
<path d="M781.5664063,1109 L781.6289063,1122" style="fill:none;stroke:rgb(85,142,213)" clip-path="url(#clip148)" />
<clipPath id="clip149"><path d="M754,1080 L810,1080 L810,1113 L754,1113 L754,1080 Z" /></clipPath>
<path d="M757,1110 L806,1110 Z M757,1110" style="fill:none;stroke:rgb(85,142,213);stroke-width:3" clip-path="url(#clip149)" />
<text x="769" y="1098" style="font:10px Open Sans">root</text>
<clipPath id="clip150"><path d="M775,1111 L788,1111 L788,1124 L775,1124 L775,1111 Z" /></clipPath>
<path d="M785.5,1117 C785.5,1114.515625 783.484375,1112.5 781,1112.5 C778.515625,1112.5 776.5,1114.515625 776.5,1117 C776.5,1119.484375 778.515625,1121.5 781,1121.5 C783.484375,1121.5 785.5,1119.484375 785.5,1117 Z M785.5,1117" style="fill:rgb(250,250,250);stroke:none" clip-path="url(#clip150)" />
<clipPath id="clip151"><path d="M775,1111 L788,1111 L788,1124 L775,1124 L775,1111 Z" /></clipPath>
<path d="M785.5,1117 C785.5,1114.515625 783.484375,1112.5 781,1112.5 C778.515625,1112.5 776.5,1114.515625 776.5,1117 C776.5,1119.484375 778.515625,1121.5 781,1121.5 C783.484375,1121.5 785.5,1119.484375 785.5,1117 Z M785.5,1117" style="fill:none;stroke:rgb(85,142,213)" clip-path="url(#clip151)" />
<clipPath id="clip152"><path d="M775,1111 L788,1111 L788,1124 L775,1124 L775,1111 Z" /></clipPath>
<path d="M779,1117 L783,1117" style="fill:none;stroke:rgb(150,160,200)" clip-path="url(#clip152)" />
<clipPath id="clip153"><path d="M279,1130 L775,1130 L775,1177 L279,1177 L279,1130 Z" /></clipPath>
<path d="M281,1132 L281,1174 L772,1174 L772,1132 Z M281,1132" style="fill:rgb(255,255,255);stroke:none" clip-path="url(#clip153)" />
<clipPath id="clip154"><path d="M279,1130 L775,1130 L775,1177 L279,1177 L279,1130 Z" /></clipPath>
<path d="M281,1175 L772,1175 Z M281,1175" style="fill:none;stroke:rgb(85,142,213)" clip-path="url(#clip154)" />
<text x="292" y="1146" style="font:10px Open Sans">Es el directorio del usuario administrador, que se mantiene fuera de la carpeta /</text>
<text x="292" y="1164" style="font:10px Open Sans">home para separarlo del resto de usuarios.</text>
<clipPath id="clip155"><path d="M15,1177 L809,1177 L809,1318 L15,1318 Z M764,1179 L764,1205 L806,1205 L806,1179 Z M764,1179 Z M764,1179" /></clipPath>
<path d="M785,1218 L785,1267 C785,1269.2070313 783.2070313,1271 781,1271 L775,1271" style="fill:none;stroke:rgb(85,142,213)" clip-path="url(#clip155)" />
<clipPath id="clip156"><path d="M14,1176 L810,1176 L810,1319 L14,1319 L14,1176 Z" /></clipPath>
<path d="M785,1205 L785,1218" style="fill:none;stroke:rgb(85,142,213)" clip-path="url(#clip156)" />
<clipPath id="clip157"><path d="M761,1176 L810,1176 L810,1209 L761,1209 L761,1176 Z" /></clipPath>
<path d="M764,1206 L806,1206 Z M764,1206" style="fill:none;stroke:rgb(85,142,213);stroke-width:3" clip-path="url(#clip157)" />
<text x="776" y="1194" style="font:10px Open Sans">usr</text>
<clipPath id="clip158"><path d="M778,1207 L791,1207 L791,1220 L778,1220 L778,1207 Z" /></clipPath>
<path d="M788.5,1213 C788.5,1210.515625 786.484375,1208.5 784,1208.5 C781.515625,1208.5 779.5,1210.515625 779.5,1213 C779.5,1215.484375 781.515625,1217.5 784,1217.5 C786.484375,1217.5 788.5,1215.484375 788.5,1213 Z M788.5,1213" style="fill:rgb(250,250,250);stroke:none" clip-path="url(#clip158)" />
<clipPath id="clip159"><path d="M778,1207 L791,1207 L791,1220 L778,1220 L778,1207 Z" /></clipPath>
<path d="M788.5,1213 C788.5,1210.515625 786.484375,1208.5 784,1208.5 C781.515625,1208.5 779.5,1210.515625 779.5,1213 C779.5,1215.484375 781.515625,1217.5 784,1217.5 C786.484375,1217.5 788.5,1215.484375 788.5,1213 Z M788.5,1213" style="fill:none;stroke:rgb(85,142,213)" clip-path="url(#clip159)" />
<clipPath id="clip160"><path d="M778,1207 L791,1207 L791,1220 L778,1220 L778,1207 Z" /></clipPath>
<path d="M782,1213 L786,1213" style="fill:none;stroke:rgb(150,160,200)" clip-path="url(#clip160)" />
<clipPath id="clip161"><path d="M15,1227 L777,1227 L777,1318 L15,1318 Z M260,1228 L260,1270 L775,1270 L775,1228 Z M260,1228 Z M260,1228" /></clipPath>
<path d="M517.671875,1283 C515.5234375,1305.6679688 512.296875,1317 508,1317" style="fill:none;stroke:rgb(85,142,213)" clip-path="url(#clip161)" />
<clipPath id="clip162"><path d="M14,1226 L778,1226 L778,1319 L14,1319 L14,1226 Z" /></clipPath>
<path d="M517.6054688,1270 L517.671875,1283" style="fill:none;stroke:rgb(85,142,213)" clip-path="url(#clip162)" />
<clipPath id="clip163"><path d="M258,1226 L778,1226 L778,1273 L258,1273 L258,1226 Z" /></clipPath>
<path d="M260,1228 L260,1270 L775,1270 L775,1228 Z M260,1228" style="fill:rgb(255,255,255);stroke:none" clip-path="url(#clip163)" />
<clipPath id="clip164"><path d="M258,1226 L778,1226 L778,1273 L258,1273 L258,1226 Z" /></clipPath>
<path d="M260,1271 L775,1271 Z M260,1271" style="fill:none;stroke:rgb(85,142,213)" clip-path="url(#clip164)" />
<text x="271" y="1242" style="font:10px Open Sans"> Guarda programas y recursos organizados en subcarpetas. Estos programas están </text>
<text x="271" y="1260" style="font:10px Open Sans">disponibles para cualquier usuario del sistema. </text>
<clipPath id="clip165"><path d="M511,1271 L524,1271 L524,1284 L511,1284 L511,1271 Z" /></clipPath>
<path d="M521.5,1277 C521.5,1274.515625 519.484375,1272.5 517,1272.5 C514.515625,1272.5 512.5,1274.515625 512.5,1277 C512.5,1279.484375 514.515625,1281.5 517,1281.5 C519.484375,1281.5 521.5,1279.484375 521.5,1277 Z M521.5,1277" style="fill:rgb(250,250,250);stroke:none" clip-path="url(#clip165)" />
<clipPath id="clip166"><path d="M511,1271 L524,1271 L524,1284 L511,1284 L511,1271 Z" /></clipPath>
<path d="M521.5,1277 C521.5,1274.515625 519.484375,1272.5 517,1272.5 C514.515625,1272.5 512.5,1274.515625 512.5,1277 C512.5,1279.484375 514.515625,1281.5 517,1281.5 C519.484375,1281.5 521.5,1279.484375 521.5,1277 Z M521.5,1277" style="fill:none;stroke:rgb(85,142,213)" clip-path="url(#clip166)" />
<clipPath id="clip167"><path d="M511,1271 L524,1271 L524,1284 L511,1284 L511,1271 Z" /></clipPath>
<path d="M515,1277 L519,1277" style="fill:none;stroke:rgb(150,160,200)" clip-path="url(#clip167)" />
<clipPath id="clip168"><path d="M14,1290 L511,1290 L511,1319 L14,1319 L14,1290 Z" /></clipPath>
<path d="M16,1292 L16,1316 L508,1316 L508,1292 Z M16,1292" style="fill:rgb(255,255,255);stroke:none" clip-path="url(#clip168)" />
<clipPath id="clip169"><path d="M14,1290 L511,1290 L511,1319 L14,1319 L14,1290 Z" /></clipPath>
<path d="M16,1317 L508,1317 Z M16,1317" style="fill:none;stroke:rgb(85,142,213)" clip-path="url(#clip169)" />
<text x="27" y="1306" style="font:10px Open Sans">/usr/bin: Incluye la mayor parte de los programas disponibles para los usuarios.</text>
<clipPath id="clip170"><path d="M158,1319 L809,1319 L809,1460 L158,1460 Z M764,1321 L764,1347 L806,1347 L806,1321 Z M764,1321 Z M764,1321" /></clipPath>
<path d="M785,1360 L785,1409 C785,1411.2070313 783.2070313,1413 781,1413 L775,1413" style="fill:none;stroke:rgb(85,142,213)" clip-path="url(#clip170)" />
<clipPath id="clip171"><path d="M157,1318 L810,1318 L810,1461 L157,1461 L157,1318 Z" /></clipPath>
<path d="M785,1347 L785,1360" style="fill:none;stroke:rgb(85,142,213)" clip-path="url(#clip171)" />
<clipPath id="clip172"><path d="M761,1318 L810,1318 L810,1351 L761,1351 L761,1318 Z" /></clipPath>
<path d="M764,1348 L806,1348 Z M764,1348" style="fill:none;stroke:rgb(85,142,213);stroke-width:3" clip-path="url(#clip172)" />
<text x="776" y="1336" style="font:10px Open Sans">var</text>
<clipPath id="clip173"><path d="M778,1349 L791,1349 L791,1362 L778,1362 L778,1349 Z" /></clipPath>
<path d="M788.5,1355 C788.5,1352.515625 786.484375,1350.5 784,1350.5 C781.515625,1350.5 779.5,1352.515625 779.5,1355 C779.5,1357.484375 781.515625,1359.5 784,1359.5 C786.484375,1359.5 788.5,1357.484375 788.5,1355 Z M788.5,1355" style="fill:rgb(250,250,250);stroke:none" clip-path="url(#clip173)" />
<clipPath id="clip174"><path d="M778,1349 L791,1349 L791,1362 L778,1362 L778,1349 Z" /></clipPath>
<path d="M788.5,1355 C788.5,1352.515625 786.484375,1350.5 784,1350.5 C781.515625,1350.5 779.5,1352.515625 779.5,1355 C779.5,1357.484375 781.515625,1359.5 784,1359.5 C786.484375,1359.5 788.5,1357.484375 788.5,1355 Z M788.5,1355" style="fill:none;stroke:rgb(85,142,213)" clip-path="url(#clip174)" />
<clipPath id="clip175"><path d="M778,1349 L791,1349 L791,1362 L778,1362 L778,1349 Z" /></clipPath>
<path d="M782,1355 L786,1355" style="fill:none;stroke:rgb(150,160,200)" clip-path="url(#clip175)" />
<clipPath id="clip176"><path d="M158,1369 L777,1369 L777,1460 L158,1460 Z M295,1370 L295,1412 L775,1412 L775,1370 Z M295,1370 Z M295,1370" /></clipPath>
<path d="M535,1425 C532.7773438,1447.6679688 529.4453125,1459 525,1459" style="fill:none;stroke:rgb(85,142,213)" clip-path="url(#clip176)" />
<clipPath id="clip177"><path d="M157,1368 L778,1368 L778,1461 L157,1461 L157,1368 Z" /></clipPath>
<path d="M535,1412 L535,1425" style="fill:none;stroke:rgb(85,142,213)" clip-path="url(#clip177)" />
<clipPath id="clip178"><path d="M293,1368 L778,1368 L778,1415 L293,1415 L293,1368 Z" /></clipPath>
<path d="M295,1370 L295,1412 L775,1412 L775,1370 Z M295,1370" style="fill:rgb(255,255,255);stroke:none" clip-path="url(#clip178)" />
<clipPath id="clip179"><path d="M293,1368 L778,1368 L778,1415 L293,1415 L293,1368 Z" /></clipPath>
<path d="M295,1413 L775,1413 Z M295,1413" style="fill:none;stroke:rgb(85,142,213)" clip-path="url(#clip179)" />
<text x="306" y="1384" style="font:10px Open Sans">Almacena información del sistema o de los usuarios que cambia a lo largo del </text>
<text x="306" y="1402" style="font:10px Open Sans">tiempo</text>
<clipPath id="clip180"><path d="M528,1413 L541,1413 L541,1426 L528,1426 L528,1413 Z" /></clipPath>
<path d="M538.5,1419 C538.5,1416.515625 536.484375,1414.5 534,1414.5 C531.515625,1414.5 529.5,1416.515625 529.5,1419 C529.5,1421.484375 531.515625,1423.5 534,1423.5 C536.484375,1423.5 538.5,1421.484375 538.5,1419 Z M538.5,1419" style="fill:rgb(250,250,250);stroke:none" clip-path="url(#clip180)" />
<clipPath id="clip181"><path d="M528,1413 L541,1413 L541,1426 L528,1426 L528,1413 Z" /></clipPath>
<path d="M538.5,1419 C538.5,1416.515625 536.484375,1414.5 534,1414.5 C531.515625,1414.5 529.5,1416.515625 529.5,1419 C529.5,1421.484375 531.515625,1423.5 534,1423.5 C536.484375,1423.5 538.5,1421.484375 538.5,1419 Z M538.5,1419" style="fill:none;stroke:rgb(85,142,213)" clip-path="url(#clip181)" />
<clipPath id="clip182"><path d="M528,1413 L541,1413 L541,1426 L528,1426 L528,1413 Z" /></clipPath>
<path d="M532,1419 L536,1419" style="fill:none;stroke:rgb(150,160,200)" clip-path="url(#clip182)" />
<clipPath id="clip183"><path d="M157,1432 L528,1432 L528,1461 L157,1461 L157,1432 Z" /></clipPath>
<path d="M159,1434 L159,1458 L525,1458 L525,1434 Z M159,1434" style="fill:rgb(255,255,255);stroke:none" clip-path="url(#clip183)" />
<clipPath id="clip184"><path d="M157,1432 L528,1432 L528,1461 L157,1461 L157,1432 Z" /></clipPath>
<path d="M159,1459 L525,1459 Z M159,1459" style="fill:none;stroke:rgb(85,142,213)" clip-path="url(#clip184)" />
<text x="170" y="1448" style="font:10px Open Sans">/var/log: Guarda los archivos de registro (logs) del sistema.</text>
</svg>
