<?xml version="1.0" encoding="UTF-8"?><svg xmlns="http://www.w3.org/2000/svg" xmlns:xlink="http://www.w3.org/1999/xlink" fill-opacity="1" color-rendering="auto" color-interpolation="auto" text-rendering="auto" stroke="black" stroke-linecap="square" width="716" stroke-miterlimit="10" shape-rendering="auto" stroke-opacity="1" fill="black" stroke-dasharray="none" font-weight="normal" stroke-width="1" height="278" font-family="'Dialog'" font-style="normal" stroke-linejoin="miter" font-size="12px" stroke-dashoffset="0" image-rendering="auto">
  <!--Generated by ySVG 2.5-->
  <defs id="genericDefs"/>
  <g>
    <defs id="defs1">
      <clipPath clipPathUnits="userSpaceOnUse" id="clipPath1">
        <path d="M0 0 L716 0 L716 278 L0 278 L0 0 Z"/>
      </clipPath>
      <clipPath clipPathUnits="userSpaceOnUse" id="clipPath2">
        <path d="M231 -17 L947 -17 L947 261 L231 261 L231 -17 Z"/>
      </clipPath>
    </defs>
    <g fill="white" text-rendering="geometricPrecision" shape-rendering="geometricPrecision" transform="translate(-231,17)" stroke="white">
      <rect x="231" width="716" height="278" y="-17" clip-path="url(#clipPath2)" stroke="none"/>
    </g>
    <g id="y.node.0">
      <a xlink:href="100-QueEsDespliegue.html">
        <g fill="rgb(170,170,170)" text-rendering="geometricPrecision" shape-rendering="geometricPrecision" transform="matrix(1,0,0,1,-231,17)" stroke="rgb(170,170,170)">
          <rect x="246.6855" y="138.6438" width="96.6289" rx="4" ry="4" height="33.3562" stroke="none"/>
        </g>
        <g>
          <g stroke-linecap="butt" font-size="14px" transform="matrix(1,0,0,1,-231,17)" fill="white" text-rendering="geometricPrecision" font-family="'DejaVu Serif'" shape-rendering="geometricPrecision" stroke="white" font-weight="bold" stroke-miterlimit="1.45">
            <text x="255.6934" xml:space="preserve" y="160.2438" stroke="none">Config. IP</text>
          </g>
        </g>
      </a>
    </g>
    <g id="y.node.1">
      <a xlink:href="100-QueEsDespliegue.html">
        <g fill="white" text-rendering="geometricPrecision" shape-rendering="geometricPrecision" transform="matrix(1,0,0,1,-231,17)" stroke="white">
          <rect x="424.3247" y="42.2876" width="289.0273" rx="4" ry="4" height="33.3562" stroke="none"/>
        </g>
        <g>
          <g font-size="10px" stroke-linecap="butt" transform="matrix(1,0,0,1,-231,17)" text-rendering="geometricPrecision" font-family="'DejaVu Serif'" shape-rendering="geometricPrecision" stroke-miterlimit="1.45">
            <text x="433.1255" xml:space="preserve" y="56.6073" stroke="none">#ifconfig eth0 192.168.1.253 netmask 255.255.255.0</text>
          </g>
          <g font-size="10px" stroke-linecap="butt" transform="matrix(1,0,0,1,-231,17)" text-rendering="geometricPrecision" font-family="'DejaVu Serif'" shape-rendering="geometricPrecision" stroke-miterlimit="1.45">
            <text x="433.1255" xml:space="preserve" y="68.248" stroke="none">#route add default gw 192.168.1.1</text>
          </g>
        </g>
        <g text-rendering="geometricPrecision" stroke-miterlimit="1.45" shape-rendering="geometricPrecision" transform="matrix(1,0,0,1,-231,17)" stroke-linecap="butt">
          <rect x="424.3247" y="42.2876" fill="none" width="289.0273" rx="4" ry="4" height="33.3562"/>
        </g>
      </a>
    </g>
    <g id="y.node.2">
      <a xlink:href="100-QueEsDespliegue.html">
        <g fill="white" text-rendering="geometricPrecision" shape-rendering="geometricPrecision" transform="matrix(1,0,0,1,-231,17)" stroke="white">
          <rect x="562.8298" y="120.6438" width="136.3506" rx="4" ry="4" height="69.3562" stroke="none"/>
        </g>
        <g>
          <g font-size="10px" stroke-linecap="butt" transform="matrix(1,0,0,1,-231,17)" text-rendering="geometricPrecision" font-family="'DejaVu Serif'" shape-rendering="geometricPrecision" stroke-miterlimit="1.45">
            <text x="571.3298" xml:space="preserve" y="135.5026" stroke="none">auto eth0</text>
            <text x="571.3298" xml:space="preserve" y="147.1432" stroke="none">iface eth0 inet static </text>
            <text x="571.3298" xml:space="preserve" y="158.7838" stroke="none">address 192.168.1.253</text>
            <text x="571.3298" xml:space="preserve" y="170.4245" stroke="none">netmask 255.255.255.0</text>
            <text x="571.3298" xml:space="preserve" y="182.0651" stroke="none">gateway 192.168.1.1</text>
          </g>
        </g>
        <g text-rendering="geometricPrecision" stroke-miterlimit="1.45" shape-rendering="geometricPrecision" transform="matrix(1,0,0,1,-231,17)" stroke-linecap="butt">
          <rect x="562.8298" y="120.6438" fill="none" width="136.3506" rx="4" ry="4" height="69.3562"/>
        </g>
      </a>
    </g>
    <g id="y.node.3">
      <g fill="rgb(221,221,221)" text-rendering="geometricPrecision" shape-rendering="geometricPrecision" transform="matrix(1,0,0,1,-231,17)" stroke="rgb(221,221,221)">
        <path d="M550.5317 -1.6826 L698.3521 -1.6826 L698.3521 13.3174 L713.3521 13.3174 L713.3521 31.6736 L550.5317 31.6736 Z" stroke="none"/>
        <path fill="white" d="M698.3521 -1.6826 L698.3521 13.3174 L713.3521 13.3174 Z" fill-rule="evenodd" stroke="none"/>
      </g>
      <g text-rendering="geometricPrecision" stroke-miterlimit="1.45" shape-rendering="geometricPrecision" transform="matrix(1,0,0,1,-231,17)" stroke-linecap="butt">
        <path fill="none" d="M550.5317 -1.6826 L698.3521 -1.6826 L698.3521 13.3174 L713.3521 13.3174 L713.3521 31.6736 L550.5317 31.6736 Z"/>
        <path fill="none" d="M698.3521 -1.6826 L698.3521 13.3174 L713.3521 13.3174 Z" fill-rule="evenodd"/>
      </g>
      <g>
        <g font-size="8px" stroke-linecap="butt" transform="matrix(1,0,0,1,-231,17)" text-rendering="geometricPrecision" font-family="sans-serif" shape-rendering="geometricPrecision" stroke-miterlimit="1.45">
          <text x="575.0317" xml:space="preserve" y="13.1088" stroke="none">Esta configuración se pierde</text>
          <text x="593.2837" xml:space="preserve" y="22.4213" stroke="none">al apagar el equipo</text>
        </g>
      </g>
    </g>
    <g id="y.node.4">
      <a xlink:href="100-QueEsDespliegue.html">
        <g fill="white" text-rendering="geometricPrecision" shape-rendering="geometricPrecision" transform="matrix(1,0,0,1,-231,17)" stroke="white">
          <rect x="847.6855" y="138.6438" width="84.1597" rx="4" ry="4" height="33.3562" stroke="none"/>
        </g>
        <g>
          <g font-size="10px" stroke-linecap="butt" transform="matrix(1,0,0,1,-231,17)" text-rendering="geometricPrecision" font-family="'DejaVu Serif'" shape-rendering="geometricPrecision" stroke-miterlimit="1.45">
            <text x="855.4563" xml:space="preserve" y="152.9635" stroke="none">#ifdown eth0</text>
            <text x="855.4563" xml:space="preserve" y="164.6041" stroke="none">#ifup eth0</text>
          </g>
        </g>
        <g text-rendering="geometricPrecision" stroke-miterlimit="1.45" shape-rendering="geometricPrecision" transform="matrix(1,0,0,1,-231,17)" stroke-linecap="butt">
          <rect x="847.6855" y="138.6438" fill="none" width="84.1597" rx="4" ry="4" height="33.3562"/>
        </g>
      </a>
    </g>
    <g id="y.node.5">
      <a xlink:href="100-QueEsDespliegue.html">
        <g fill="white" text-rendering="geometricPrecision" shape-rendering="geometricPrecision" transform="matrix(1,0,0,1,-231,17)" stroke="white">
          <rect x="562.8298" y="209.2876" width="111.0742" rx="4" ry="4" height="33.3562" stroke="none"/>
        </g>
        <g>
          <g font-size="10px" stroke-linecap="butt" transform="matrix(1,0,0,1,-231,17)" text-rendering="geometricPrecision" font-family="'DejaVu Serif'" shape-rendering="geometricPrecision" stroke-miterlimit="1.45">
            <text x="567.8298" xml:space="preserve" y="223.6073" stroke="none">auto eth0</text>
            <text x="567.8298" xml:space="preserve" y="235.248" stroke="none">iface eth0 inet dhcp</text>
          </g>
        </g>
        <g text-rendering="geometricPrecision" stroke-miterlimit="1.45" shape-rendering="geometricPrecision" transform="matrix(1,0,0,1,-231,17)" stroke-linecap="butt">
          <rect x="562.8298" y="209.2876" fill="none" width="111.0742" rx="4" ry="4" height="33.3562"/>
        </g>
      </a>
    </g>
    <g id="y.node.6">
      <a xlink:href="100-QueEsDespliegue.html">
        <g fill="white" text-rendering="geometricPrecision" shape-rendering="geometricPrecision" transform="matrix(1,0,0,1,-231,17)" stroke="white">
          <rect x="779.6855" y="206.6438" width="111.0742" rx="4" ry="4" height="38.6438" stroke="none"/>
        </g>
        <g>
          <g font-size="10px" stroke-linecap="butt" transform="matrix(1,0,0,1,-231,17)" text-rendering="geometricPrecision" font-family="'DejaVu Serif'" shape-rendering="geometricPrecision" stroke-miterlimit="1.45">
            <text x="788.8384" xml:space="preserve" y="223.6073" stroke="none">#dhcliente -r eth0</text>
            <text x="788.8384" xml:space="preserve" y="235.248" stroke="none">#dhclient eth0</text>
          </g>
        </g>
        <g text-rendering="geometricPrecision" stroke-miterlimit="1.45" shape-rendering="geometricPrecision" transform="matrix(1,0,0,1,-231,17)" stroke-linecap="butt">
          <rect x="779.6855" y="206.6438" fill="none" width="111.0742" rx="4" ry="4" height="38.6438"/>
        </g>
      </a>
    </g>
    <g id="y.node.7">
      <a xlink:href="100-QueEsDespliegue.html">
        <g fill="rgb(170,170,170)" text-rendering="geometricPrecision" shape-rendering="geometricPrecision" transform="matrix(1,0,0,1,-231,17)" stroke="rgb(170,170,170)">
          <ellipse rx="5" ry="5.1081" cx="477.3247" cy="155.3219" stroke="none"/>
        </g>
        <g/>
      </a>
    </g>
    <g id="y.edge.0">
      <g stroke-linecap="butt" transform="matrix(1,0,0,1,-231,17)" fill="rgb(170,170,170)" text-rendering="geometricPrecision" shape-rendering="geometricPrecision" stroke="rgb(170,170,170)" stroke-width="2" stroke-miterlimit="1.45">
        <path fill="none" d="M295 138.6196 L295 58.9657 L415.3311 58.9657"/>
        <path d="M424.3311 58.9657 L410.8311 53.3407 L414.2061 58.9657 L410.8311 64.5907 Z" stroke="none"/>
      </g>
      <g>
        <g font-size="10px" stroke-linecap="butt" transform="matrix(1,0,0,1,-231,17)" text-rendering="geometricPrecision" font-family="'DejaVu Serif'" shape-rendering="geometricPrecision" stroke-miterlimit="1.45">
          <text x="311.6001" xml:space="preserve" y="34.6416" stroke="none">Desde la linea </text>
          <text x="316.6636" xml:space="preserve" y="46.2822" stroke="none">de comandos.</text>
        </g>
      </g>
    </g>
    <g id="y.edge.2">
      <g stroke-linecap="butt" transform="matrix(1,0,0,1,-231,17)" fill="rgb(170,170,170)" text-rendering="geometricPrecision" shape-rendering="geometricPrecision" stroke="rgb(170,170,170)" stroke-width="2" stroke-miterlimit="1.45">
        <path fill="none" d="M699.2014 155.3219 L838.6608 155.3219"/>
        <path d="M847.6608 155.3219 L834.1608 149.6969 L837.5358 155.3219 L834.1608 160.9469 Z" stroke="none"/>
      </g>
      <g>
        <g font-size="10px" stroke-linecap="butt" transform="matrix(1,0,0,1,-231,17)" text-rendering="geometricPrecision" font-family="'DejaVu Serif'" shape-rendering="geometricPrecision" stroke-miterlimit="1.45">
          <text x="729.449" xml:space="preserve" y="135.6416" stroke="none">para recargar la IP</text>
          <text x="712.8962" xml:space="preserve" y="147.2822" stroke="none">sin tener que reiniciar</text>
        </g>
      </g>
    </g>
    <g id="y.edge.3">
      <g stroke-linecap="butt" transform="matrix(1,0,0,1,-231,17)" fill="rgb(170,170,170)" text-rendering="geometricPrecision" shape-rendering="geometricPrecision" stroke="rgb(170,170,170)" stroke-width="2" stroke-miterlimit="1.45">
        <path fill="none" d="M673.878 225.9657 L770.721 225.9657"/>
        <path d="M779.721 225.9657 L766.221 220.3407 L769.596 225.9657 L766.221 231.5907 Z" stroke="none"/>
      </g>
      <g>
        <g font-size="10px" stroke-linecap="butt" transform="matrix(1,0,0,1,-231,17)" text-rendering="geometricPrecision" font-family="'DejaVu Serif'" shape-rendering="geometricPrecision" stroke-miterlimit="1.45">
          <text x="687.3552" xml:space="preserve" y="217.4619" stroke="none">renovar la IP</text>
        </g>
      </g>
    </g>
    <g id="y.edge.1">
      <g stroke-linecap="butt" transform="matrix(1,0,0,1,-231,17)" fill="rgb(170,170,170)" text-rendering="geometricPrecision" shape-rendering="geometricPrecision" stroke="rgb(170,170,170)" stroke-width="2" stroke-miterlimit="1.45">
        <path fill="none" d="M343.2964 155.3219 L472.3247 155.3219"/>
      </g>
      <g>
        <g font-size="10px" stroke-linecap="butt" transform="matrix(1,0,0,1,-231,17)" text-rendering="geometricPrecision" font-family="'DejaVu Serif'" shape-rendering="geometricPrecision" stroke-miterlimit="1.45">
          <text x="402.6929" xml:space="preserve" y="131.6416" stroke="none">Modificando </text>
          <text x="350.9448" xml:space="preserve" y="143.2822" stroke="none">/etc/network/interfaces</text>
        </g>
      </g>
    </g>
    <g id="y.edge.4">
      <g stroke-linecap="butt" transform="matrix(1,0,0,1,-231,17)" fill="rgb(170,170,170)" text-rendering="geometricPrecision" shape-rendering="geometricPrecision" stroke="rgb(170,170,170)" stroke-width="2" stroke-miterlimit="1.45">
        <path fill="none" d="M482.3247 155.3219 L553.7994 155.3219"/>
        <path d="M562.7994 155.3219 L549.2994 149.6969 L552.6744 155.3219 L549.2994 160.9469 Z" stroke="none"/>
      </g>
      <g>
        <g font-size="10px" stroke-linecap="butt" transform="matrix(1,0,0,1,-231,17)" text-rendering="geometricPrecision" font-family="'DejaVu Serif'" shape-rendering="geometricPrecision" stroke-miterlimit="1.45">
          <text x="496.0952" xml:space="preserve" y="145.4619" stroke="none">estática</text>
        </g>
      </g>
    </g>
    <g id="y.edge.5">
      <g stroke-linecap="butt" transform="matrix(1,0,0,1,-231,17)" fill="rgb(170,170,170)" text-rendering="geometricPrecision" shape-rendering="geometricPrecision" stroke="rgb(170,170,170)" stroke-width="2" stroke-miterlimit="1.45">
        <path fill="none" d="M479.1243 160.0877 L504 225.9657 L553.8309 225.9657"/>
        <path d="M562.8309 225.9657 L549.3309 220.3407 L552.7059 225.9657 L549.3309 231.5907 Z" stroke="none"/>
      </g>
      <g>
        <g font-size="10px" stroke-linecap="butt" transform="matrix(1,0,0,1,-231,17)" text-rendering="geometricPrecision" font-family="'DejaVu Serif'" shape-rendering="geometricPrecision" stroke-miterlimit="1.45">
          <text x="507.8774" xml:space="preserve" y="213.4619" stroke="none">dinamica</text>
        </g>
      </g>
    </g>
  </g>
</svg>
