<?xml version="1.0" encoding="UTF-8"?><svg xmlns="http://www.w3.org/2000/svg" xmlns:xlink="http://www.w3.org/1999/xlink" fill-opacity="1" color-rendering="auto" color-interpolation="auto" text-rendering="auto" stroke="black" stroke-linecap="square" width="1116" stroke-miterlimit="10" shape-rendering="auto" stroke-opacity="1" fill="black" stroke-dasharray="none" font-weight="normal" stroke-width="1" height="601" font-family="'Dialog'" font-style="normal" stroke-linejoin="miter" font-size="12px" stroke-dashoffset="0" image-rendering="auto">
  <!--Generated by ySVG 2.5-->
  <defs id="genericDefs"/>
  <g>
    <defs id="defs1">
      <clipPath clipPathUnits="userSpaceOnUse" id="clipPath1">
        <path d="M0 0 L1116 0 L1116 601 L0 601 L0 0 Z"/>
      </clipPath>
      <clipPath clipPathUnits="userSpaceOnUse" id="clipPath2">
        <path d="M358 61 L1474 61 L1474 662 L358 662 L358 61 Z"/>
      </clipPath>
    </defs>
    <g fill="white" text-rendering="geometricPrecision" shape-rendering="geometricPrecision" transform="translate(-358,-61)" stroke="white">
      <rect x="358" width="1116" height="601" y="61" clip-path="url(#clipPath2)" stroke="none"/>
    </g>
    <g id="y.node.0">
      <g fill="white" text-rendering="geometricPrecision" shape-rendering="geometricPrecision" transform="matrix(1,0,0,1,-358,-61)" stroke="white">
        <rect x="442.7373" y="111.6478" width="611.5254" rx="4" ry="4" height="127.7045" stroke="none"/>
      </g>
      <g>
        <g text-rendering="geometricPrecision" stroke-miterlimit="1.45" shape-rendering="geometricPrecision" font-family="'DejaVu Serif'" transform="matrix(1,0,0,1,-358,-61)" stroke-linecap="butt">
          <text x="448.7373" xml:space="preserve" y="130.7637" stroke="none">1. Crea un directorio en el home del usuario diego. Dentro de ese directorio crea otros dos o mas.</text>
        </g>
        <g text-rendering="geometricPrecision" stroke-miterlimit="1.45" shape-rendering="geometricPrecision" font-family="'DejaVu Serif'" transform="matrix(1,0,0,1,-358,-61)" stroke-linecap="butt">
          <text x="448.7373" xml:space="preserve" y="144.7324" stroke="none">En uno de ellos crea otro directorio mas, con algún archivo. Puedes crear el archivo facilmente</text>
          <text x="448.7373" xml:space="preserve" y="158.7012" stroke="none">con: touch &lt;nombreArchivo&gt;.</text>
          <text x="448.7373" xml:space="preserve" y="172.6699" stroke="none">2. Usa ls -l para el contenido de los directorios y sus permisos.</text>
          <text x="448.7373" xml:space="preserve" y="186.6387" stroke="none">3. Posicionate en el primer directorio que hiciste, el que contiene todo lo demás, y, mediante el</text>
          <text x="448.7373" xml:space="preserve" y="200.6074" stroke="none">comando ls -R puedes ver todos los archivos y directorios contenidos.</text>
          <text x="448.7373" xml:space="preserve" y="214.5762" stroke="none">4. Instala el paquete: tree, mediante: apt install tree.</text>
          <text x="448.7373" xml:space="preserve" y="228.5449" stroke="none">5. Haz lo mismo que en paso 3 pero con el comando tree.</text>
        </g>
      </g>
      <g stroke-linecap="butt" transform="matrix(1,0,0,1,-358,-61)" fill="gray" text-rendering="geometricPrecision" shape-rendering="geometricPrecision" stroke="gray" stroke-width="2" stroke-miterlimit="1.45">
        <rect x="442.7373" y="111.6478" fill="none" width="611.5254" rx="4" ry="4" height="127.7045"/>
      </g>
    </g>
    <g id="y.node.1">
      <a xlink:href="100-Programas.html">
        <g fill="rgb(255,204,0)" text-rendering="geometricPrecision" shape-rendering="geometricPrecision" transform="matrix(1,0,0,1,-358,-61)" stroke="rgb(255,204,0)">
          <ellipse rx="12.7243" ry="12.1781" cx="421.2907" cy="123.8259" stroke="none"/>
        </g>
        <g>
          <g font-size="14px" stroke-linecap="butt" transform="matrix(1,0,0,1,-358,-61)" text-rendering="geometricPrecision" font-family="'DejaVu Serif'" shape-rendering="geometricPrecision" stroke-miterlimit="1.45">
            <text x="416.837" xml:space="preserve" y="128.6725" stroke="none">1</text>
          </g>
        </g>
      </a>
    </g>
    <g id="y.node.2">
      <g fill="white" text-rendering="geometricPrecision" shape-rendering="geometricPrecision" transform="matrix(1,0,0,1,-358,-61)" stroke="white">
        <rect x="442.7373" y="253.2955" width="611.5254" rx="4" ry="4" height="127.7045" stroke="none"/>
      </g>
      <g>
        <g text-rendering="geometricPrecision" stroke-miterlimit="1.45" shape-rendering="geometricPrecision" font-family="'DejaVu Serif'" transform="matrix(1,0,0,1,-358,-61)" stroke-linecap="butt">
          <text x="448.7373" xml:space="preserve" y="272.4114" stroke="none">1. Abre el archivo /etc/network/interfaces con el editor: nano.</text>
          <text x="448.7373" xml:space="preserve" y="286.3802" stroke="none">2. Abre el archivo /etc/host con el editor nano.</text>
          <text x="448.7373" xml:space="preserve" y="300.3489" stroke="none">3. Crea un archivo de texto en el home de diego y escribe dentro tu nombre y apellidos con el </text>
          <text x="448.7373" xml:space="preserve" y="314.3177" stroke="none">editor nano.</text>
          <text x="448.7373" xml:space="preserve" y="328.2864" stroke="none">4. Abre los archivos anteriores con: vi. ( para cerrar vi teclea la siguiente secuencia: esc + : +</text>
          <text x="448.7373" xml:space="preserve" y="342.2552" stroke="none">q! + intro.</text>
          <text x="448.7373" xml:space="preserve" y="356.2239" stroke="none">5. Instala el editor: vim.</text>
          <text x="448.7373" xml:space="preserve" y="370.1927" stroke="none">6. Abre los archivos anteriores con vim.</text>
        </g>
      </g>
      <g stroke-linecap="butt" transform="matrix(1,0,0,1,-358,-61)" fill="gray" text-rendering="geometricPrecision" shape-rendering="geometricPrecision" stroke="gray" stroke-width="2" stroke-miterlimit="1.45">
        <rect x="442.7373" y="253.2955" fill="none" width="611.5254" rx="4" ry="4" height="127.7045"/>
      </g>
    </g>
    <g id="y.node.3">
      <a xlink:href="100-Programas.html">
        <g fill="rgb(255,204,0)" text-rendering="geometricPrecision" shape-rendering="geometricPrecision" transform="matrix(1,0,0,1,-358,-61)" stroke="rgb(255,204,0)">
          <ellipse rx="12.7243" ry="12.1781" cx="421.2907" cy="265.4736" stroke="none"/>
        </g>
        <g>
          <g font-size="14px" stroke-linecap="butt" transform="matrix(1,0,0,1,-358,-61)" text-rendering="geometricPrecision" font-family="'DejaVu Serif'" shape-rendering="geometricPrecision" stroke-miterlimit="1.45">
            <text x="416.837" xml:space="preserve" y="270.3203" stroke="none">2</text>
          </g>
        </g>
      </a>
    </g>
    <g id="y.node.4">
      <g fill="white" text-rendering="geometricPrecision" shape-rendering="geometricPrecision" transform="matrix(1,0,0,1,-358,-61)" stroke="white">
        <rect x="442.7373" y="389.5911" width="611.5254" rx="4" ry="4" height="127.7045" stroke="none"/>
      </g>
      <g>
        <g text-rendering="geometricPrecision" stroke-miterlimit="1.45" shape-rendering="geometricPrecision" font-family="'DejaVu Serif'" transform="matrix(1,0,0,1,-358,-61)" stroke-linecap="butt">
          <text x="448.7373" xml:space="preserve" y="415.6913" stroke="none">1. Abre el archivo /etc/network/interfaces con el editor vim y configura la interfaz de red dentro</text>
          <text x="448.7373" xml:space="preserve" y="429.6601" stroke="none">de la red 192.168.1.0.</text>
          <text x="448.7373" xml:space="preserve" y="443.6288" stroke="none">2. Reinicia la tarjeta de red mediante los comandos: ifdown / ifup, acompañados del nombre</text>
          <text x="448.7373" xml:space="preserve" y="457.5976" stroke="none">de la tarjeta.</text>
          <text x="448.7373" xml:space="preserve" y="471.5663" stroke="none">3. Comprueba que todo ha ido bien mediante el comando ifconfig.</text>
          <text x="448.7373" xml:space="preserve" y="485.5351" stroke="none">4. Deja la tarjeta de red en dinamica, pon el adaptador de red en adaptador puente, renueva </text>
          <text x="448.7373" xml:space="preserve" y="499.5038" stroke="none">la IP y haz un ping a la IP de tu compañero ( de la maquina real o de la virtual ).</text>
        </g>
      </g>
      <g stroke-linecap="butt" transform="matrix(1,0,0,1,-358,-61)" fill="gray" text-rendering="geometricPrecision" shape-rendering="geometricPrecision" stroke="gray" stroke-width="2" stroke-miterlimit="1.45">
        <rect x="442.7373" y="389.5911" fill="none" width="611.5254" rx="4" ry="4" height="127.7045"/>
      </g>
    </g>
    <g id="y.node.5">
      <a xlink:href="100-Programas.html">
        <g fill="rgb(255,204,0)" text-rendering="geometricPrecision" shape-rendering="geometricPrecision" transform="matrix(1,0,0,1,-358,-61)" stroke="rgb(255,204,0)">
          <ellipse rx="12.7243" ry="12.1781" cx="421.2907" cy="401.7692" stroke="none"/>
        </g>
        <g>
          <g font-size="14px" stroke-linecap="butt" transform="matrix(1,0,0,1,-358,-61)" text-rendering="geometricPrecision" font-family="'DejaVu Serif'" shape-rendering="geometricPrecision" stroke-miterlimit="1.45">
            <text x="416.837" xml:space="preserve" y="406.6158" stroke="none">3</text>
          </g>
        </g>
      </a>
    </g>
    <g id="y.node.6">
      <g fill="rgb(204,153,255)" text-rendering="geometricPrecision" shape-rendering="geometricPrecision" transform="matrix(1,0,0,1,-358,-61)" stroke="rgb(204,153,255)">
        <path d="M1062.9851 322.3735 L1408.3857 322.3735 L1408.3857 337.3735 L1423.3857 337.3735 L1423.3857 374.922 L1062.9851 374.922 Z" stroke="none"/>
        <path fill="white" d="M1408.3857 322.3735 L1408.3857 337.3735 L1423.3857 337.3735 Z" fill-rule="evenodd" stroke="none"/>
      </g>
      <g text-rendering="geometricPrecision" stroke-miterlimit="1.45" shape-rendering="geometricPrecision" transform="matrix(1,0,0,1,-358,-61)" stroke-linecap="butt">
        <path fill="none" d="M1062.9851 322.3735 L1408.3857 322.3735 L1408.3857 337.3735 L1423.3857 337.3735 L1423.3857 374.922 L1062.9851 374.922 Z"/>
        <path fill="none" d="M1408.3857 322.3735 L1408.3857 337.3735 L1423.3857 337.3735 Z" fill-rule="evenodd"/>
      </g>
      <g>
        <g text-rendering="geometricPrecision" stroke-miterlimit="1.45" shape-rendering="geometricPrecision" font-family="sans-serif" transform="matrix(1,0,0,1,-358,-61)" stroke-linecap="butt">
          <text x="1081.3495" xml:space="preserve" y="345.8177" stroke="none">Busca como copiar y pegar en vim. Copía cinco veces</text>
          <text x="1081.3495" xml:space="preserve" y="359.7864" stroke="none">una frase cualquiera dentro de un archivo.</text>
        </g>
      </g>
    </g>
    <g id="y.node.7">
      <g fill="rgb(204,153,255)" text-rendering="geometricPrecision" shape-rendering="geometricPrecision" transform="matrix(1,0,0,1,-358,-61)" stroke="rgb(204,153,255)">
        <path d="M1062.9851 464.747 L1408.3857 464.747 L1408.3857 479.747 L1423.3857 479.747 L1423.3857 517.2955 L1062.9851 517.2955 Z" stroke="none"/>
        <path fill="white" d="M1408.3857 464.747 L1408.3857 479.747 L1423.3857 479.747 Z" fill-rule="evenodd" stroke="none"/>
      </g>
      <g text-rendering="geometricPrecision" stroke-miterlimit="1.45" shape-rendering="geometricPrecision" transform="matrix(1,0,0,1,-358,-61)" stroke-linecap="butt">
        <path fill="none" d="M1062.9851 464.747 L1408.3857 464.747 L1408.3857 479.747 L1423.3857 479.747 L1423.3857 517.2955 L1062.9851 517.2955 Z"/>
        <path fill="none" d="M1408.3857 464.747 L1408.3857 479.747 L1423.3857 479.747 Z" fill-rule="evenodd"/>
      </g>
      <g>
        <g text-rendering="geometricPrecision" stroke-miterlimit="1.45" shape-rendering="geometricPrecision" font-family="sans-serif" transform="matrix(1,0,0,1,-358,-61)" stroke-linecap="butt">
          <text x="1088.8495" xml:space="preserve" y="488.1912" stroke="none">Realiza el mismo ejercicio pero usando el comando</text>
          <text x="1088.8495" xml:space="preserve" y="502.16" stroke="none">ifconfig en vez de el archivo de interfaces.</text>
        </g>
      </g>
    </g>
    <g id="y.node.8">
      <g fill="white" text-rendering="geometricPrecision" shape-rendering="geometricPrecision" transform="matrix(1,0,0,1,-358,-61)" stroke="white">
        <rect x="442.7373" y="525.8866" width="611.5254" rx="4" ry="4" height="52.5485" stroke="none"/>
      </g>
      <g>
        <g text-rendering="geometricPrecision" stroke-miterlimit="1.45" shape-rendering="geometricPrecision" font-family="'DejaVu Serif'" transform="matrix(1,0,0,1,-358,-61)" stroke-linecap="butt">
          <text x="448.7373" xml:space="preserve" y="542.3464" stroke="none">1. Mediante linea de comandos en Linux y Windows, crea un directorio dentro del directorio</text>
          <text x="448.7373" xml:space="preserve" y="556.3151" stroke="none">personal del usuario y dentro copia el archivo host. El archivo copiado debe tener de nombre</text>
          <text x="448.7373" xml:space="preserve" y="570.2839" stroke="none">hosts-backup.</text>
        </g>
      </g>
      <g stroke-linecap="butt" transform="matrix(1,0,0,1,-358,-61)" fill="gray" text-rendering="geometricPrecision" shape-rendering="geometricPrecision" stroke="gray" stroke-width="2" stroke-miterlimit="1.45">
        <rect x="442.7373" y="525.8866" fill="none" width="611.5254" rx="4" ry="4" height="52.5485"/>
      </g>
    </g>
    <g id="y.node.9">
      <a xlink:href="100-Programas.html">
        <g fill="rgb(255,204,0)" text-rendering="geometricPrecision" shape-rendering="geometricPrecision" transform="matrix(1,0,0,1,-358,-61)" stroke="rgb(255,204,0)">
          <ellipse rx="12.7243" ry="12.1781" cx="421.2907" cy="538.0647" stroke="none"/>
        </g>
        <g>
          <g font-size="14px" stroke-linecap="butt" transform="matrix(1,0,0,1,-358,-61)" text-rendering="geometricPrecision" font-family="'DejaVu Serif'" shape-rendering="geometricPrecision" stroke-miterlimit="1.45">
            <text x="416.837" xml:space="preserve" y="542.9114" stroke="none">4</text>
          </g>
        </g>
      </a>
    </g>
    <g id="y.node.10">
      <g fill="white" text-rendering="geometricPrecision" shape-rendering="geometricPrecision" transform="matrix(1,0,0,1,-358,-61)" stroke="white">
        <rect x="442.7373" y="587.0262" width="611.5254" rx="4" ry="4" height="24.3562" stroke="none"/>
      </g>
      <g>
        <g text-rendering="geometricPrecision" stroke-miterlimit="1.45" shape-rendering="geometricPrecision" font-family="'DejaVu Serif'" transform="matrix(1,0,0,1,-358,-61)" stroke-linecap="butt">
          <text x="448.7373" xml:space="preserve" y="603.3585" stroke="none">1. Crea un script tanto en Linux como en Windows para realizar las acciones del ejercicio anterior.</text>
        </g>
      </g>
      <g stroke-linecap="butt" transform="matrix(1,0,0,1,-358,-61)" fill="gray" text-rendering="geometricPrecision" shape-rendering="geometricPrecision" stroke="gray" stroke-width="2" stroke-miterlimit="1.45">
        <rect x="442.7373" y="587.0262" fill="none" width="611.5254" rx="4" ry="4" height="24.3562"/>
      </g>
    </g>
    <g id="y.node.11">
      <a xlink:href="100-Programas.html">
        <g fill="rgb(255,204,0)" text-rendering="geometricPrecision" shape-rendering="geometricPrecision" transform="matrix(1,0,0,1,-358,-61)" stroke="rgb(255,204,0)">
          <ellipse rx="12.7243" ry="12.1781" cx="421.2907" cy="599.2042" stroke="none"/>
        </g>
        <g>
          <g font-size="14px" stroke-linecap="butt" transform="matrix(1,0,0,1,-358,-61)" text-rendering="geometricPrecision" font-family="'DejaVu Serif'" shape-rendering="geometricPrecision" stroke-miterlimit="1.45">
            <text x="416.837" xml:space="preserve" y="604.0509" stroke="none">5</text>
          </g>
        </g>
      </a>
    </g>
  </g>
</svg>
