<?xml version="1.0" encoding="UTF-8"?><svg xmlns="http://www.w3.org/2000/svg" xmlns:xlink="http://www.w3.org/1999/xlink" fill-opacity="1" color-rendering="auto" color-interpolation="auto" text-rendering="auto" stroke="black" stroke-linecap="square" width="503" stroke-miterlimit="10" shape-rendering="auto" stroke-opacity="1" fill="black" stroke-dasharray="none" font-weight="normal" stroke-width="1" height="330" font-family="'Dialog'" font-style="normal" stroke-linejoin="miter" font-size="12px" stroke-dashoffset="0" image-rendering="auto">
  <!--Generated by ySVG 2.5-->
  <defs id="genericDefs"/>
  <g>
    <defs id="defs1">
      <clipPath clipPathUnits="userSpaceOnUse" id="clipPath1">
        <path d="M0 0 L503 0 L503 330 L0 330 L0 0 Z"/>
      </clipPath>
      <clipPath clipPathUnits="userSpaceOnUse" id="clipPath2">
        <path d="M21 28 L524 28 L524 358 L21 358 L21 28 Z"/>
      </clipPath>
    </defs>
    <g fill="white" text-rendering="geometricPrecision" shape-rendering="geometricPrecision" transform="translate(-21,-28)" stroke="white">
      <rect x="21" width="503" height="330" y="28" clip-path="url(#clipPath2)" stroke="none"/>
    </g>
    <g id="y.node.0">
      <g fill="rgb(153,204,255)" text-rendering="geometricPrecision" shape-rendering="geometricPrecision" transform="matrix(1,0,0,1,-21,-28)" stroke="rgb(153,204,255)">
        <rect x="71.2891" y="78.2666" width="402.4219" rx="4" ry="4" height="229.2401" stroke="none"/>
      </g>
      <g/>
    </g>
    <g id="y.node.1">
      <a xlink:href="vim.pdf">
        <g fill="white" text-rendering="geometricPrecision" shape-rendering="geometricPrecision" transform="matrix(1,0,0,1,-21,-28)" stroke="white">
          <rect x="91.2254" y="97.9315" width="367.4743" rx="4" ry="4" height="28.3562" stroke="none"/>
        </g>
        <g>
          <g font-size="14px" stroke-linecap="butt" transform="matrix(1,0,0,1,-21,-28)" text-rendering="geometricPrecision" font-family="'DejaVu Serif'" shape-rendering="geometricPrecision" stroke-miterlimit="1.45">
            <text x="97.2254" xml:space="preserve" y="116.9562" stroke="none">Vim para programadores</text>
          </g>
        </g>
        <g text-rendering="geometricPrecision" stroke-miterlimit="1.45" stroke-dasharray="6,2" shape-rendering="geometricPrecision" transform="matrix(1,0,0,1,-21,-28)" stroke-linecap="butt">
          <rect x="91.2254" y="97.9315" fill="none" width="367.4743" rx="4" ry="4" height="28.3562"/>
        </g>
      </a>
    </g>
    <g id="y.node.2">
      <a xlink:href="comandosLinux.pdf">
        <g fill="white" text-rendering="geometricPrecision" shape-rendering="geometricPrecision" transform="matrix(1,0,0,1,-21,-28)" stroke="white">
          <rect x="91.2254" y="134.7124" width="367.4743" rx="4" ry="4" height="28.3562" stroke="none"/>
        </g>
        <g>
          <g font-size="14px" stroke-linecap="butt" transform="matrix(1,0,0,1,-21,-28)" text-rendering="geometricPrecision" font-family="'DejaVu Serif'" shape-rendering="geometricPrecision" stroke-miterlimit="1.45">
            <text x="97.2254" xml:space="preserve" y="153.7371" stroke="none">Comandos Linux</text>
          </g>
        </g>
        <g text-rendering="geometricPrecision" stroke-miterlimit="1.45" stroke-dasharray="6,2" shape-rendering="geometricPrecision" transform="matrix(1,0,0,1,-21,-28)" stroke-linecap="butt">
          <rect x="91.2254" y="134.7124" fill="none" width="367.4743" rx="4" ry="4" height="28.3562"/>
        </g>
      </a>
    </g>
    <g id="y.node.3">
      <a xlink:href="shellBash.pdf">
        <g fill="white" text-rendering="geometricPrecision" shape-rendering="geometricPrecision" transform="matrix(1,0,0,1,-21,-28)" stroke="white">
          <rect x="91.2254" y="171.4933" width="367.4743" rx="4" ry="4" height="28.3562" stroke="none"/>
        </g>
        <g>
          <g font-size="14px" stroke-linecap="butt" transform="matrix(1,0,0,1,-21,-28)" text-rendering="geometricPrecision" font-family="'DejaVu Serif'" shape-rendering="geometricPrecision" stroke-miterlimit="1.45">
            <text x="97.2254" xml:space="preserve" y="190.518" stroke="none">Scripts con shell bash</text>
          </g>
        </g>
        <g text-rendering="geometricPrecision" stroke-miterlimit="1.45" stroke-dasharray="6,2" shape-rendering="geometricPrecision" transform="matrix(1,0,0,1,-21,-28)" stroke-linecap="butt">
          <rect x="91.2254" y="171.4933" fill="none" width="367.4743" rx="4" ry="4" height="28.3562"/>
        </g>
      </a>
    </g>
    <g id="y.node.4">
      <a xlink:href="shellBatch.pdf">
        <g fill="white" text-rendering="geometricPrecision" shape-rendering="geometricPrecision" transform="matrix(1,0,0,1,-21,-28)" stroke="white">
          <rect x="91.2254" y="208.2741" width="367.4743" rx="4" ry="4" height="28.3562" stroke="none"/>
        </g>
        <g>
          <g font-size="14px" stroke-linecap="butt" transform="matrix(1,0,0,1,-21,-28)" text-rendering="geometricPrecision" font-family="'DejaVu Serif'" shape-rendering="geometricPrecision" stroke-miterlimit="1.45">
            <text x="97.2254" xml:space="preserve" y="227.2989" stroke="none">Scripts en Windows</text>
          </g>
        </g>
        <g text-rendering="geometricPrecision" stroke-miterlimit="1.45" stroke-dasharray="6,2" shape-rendering="geometricPrecision" transform="matrix(1,0,0,1,-21,-28)" stroke-linecap="butt">
          <rect x="91.2254" y="208.2741" fill="none" width="367.4743" rx="4" ry="4" height="28.3562"/>
        </g>
      </a>
    </g>
  </g>
</svg>
