<?xml version="1.0" encoding="UTF-8"?><svg xmlns="http://www.w3.org/2000/svg" xmlns:xlink="http://www.w3.org/1999/xlink" fill-opacity="1" color-rendering="auto" color-interpolation="auto" text-rendering="auto" stroke="black" stroke-linecap="square" width="398" stroke-miterlimit="10" shape-rendering="auto" stroke-opacity="1" fill="black" stroke-dasharray="none" font-weight="normal" stroke-width="1" height="88" font-family="'Dialog'" font-style="normal" stroke-linejoin="miter" font-size="12px" stroke-dashoffset="0" image-rendering="auto">
  <!--Generated by ySVG 2.5-->
  <defs id="genericDefs"/>
  <g>
    <defs id="defs1">
      <clipPath clipPathUnits="userSpaceOnUse" id="clipPath1">
        <path d="M0 0 L398 0 L398 88 L0 88 L0 0 Z"/>
      </clipPath>
      <clipPath clipPathUnits="userSpaceOnUse" id="clipPath2">
        <path d="M76 135 L474 135 L474 223 L76 223 L76 135 Z"/>
      </clipPath>
    </defs>
    <g fill="white" text-rendering="geometricPrecision" shape-rendering="geometricPrecision" transform="translate(-76,-135)" stroke="white">
      <rect x="76" width="398" height="88" y="135" clip-path="url(#clipPath2)" stroke="none"/>
    </g>
    <g id="y.node.0">
      <a xlink:href="vim.pdf">
        <g fill="white" text-rendering="geometricPrecision" shape-rendering="geometricPrecision" transform="matrix(1,0,0,1,-76,-135)" stroke="white">
          <rect x="91.2254" y="150.3562" width="367.4743" rx="4" ry="4" height="28.3562" stroke="none"/>
        </g>
        <g>
          <g text-rendering="geometricPrecision" stroke-miterlimit="1.45" shape-rendering="geometricPrecision" font-family="'DejaVu Serif'" transform="matrix(1,0,0,1,-76,-135)" stroke-linecap="butt">
            <text x="97.2254" xml:space="preserve" y="168.6886" stroke="none">Vim para programadores</text>
          </g>
        </g>
        <g text-rendering="geometricPrecision" stroke-miterlimit="1.45" stroke-dasharray="6,2" shape-rendering="geometricPrecision" transform="matrix(1,0,0,1,-76,-135)" stroke-linecap="butt">
          <rect x="91.2254" y="150.3562" fill="none" width="367.4743" rx="4" ry="4" height="28.3562"/>
        </g>
      </a>
    </g>
    <g id="y.node.1">
      <a xlink:href="comandosLinux.pdf">
        <g fill="white" text-rendering="geometricPrecision" shape-rendering="geometricPrecision" transform="matrix(1,0,0,1,-76,-135)" stroke="white">
          <rect x="91.2254" y="178.7124" width="367.4743" rx="4" ry="4" height="28.3562" stroke="none"/>
        </g>
        <g>
          <g text-rendering="geometricPrecision" stroke-miterlimit="1.45" shape-rendering="geometricPrecision" font-family="'DejaVu Serif'" transform="matrix(1,0,0,1,-76,-135)" stroke-linecap="butt">
            <text x="97.2254" xml:space="preserve" y="197.0447" stroke="none">Comandos Linux</text>
          </g>
        </g>
        <g text-rendering="geometricPrecision" stroke-miterlimit="1.45" stroke-dasharray="6,2" shape-rendering="geometricPrecision" transform="matrix(1,0,0,1,-76,-135)" stroke-linecap="butt">
          <rect x="91.2254" y="178.7124" fill="none" width="367.4743" rx="4" ry="4" height="28.3562"/>
        </g>
      </a>
    </g>
  </g>
</svg>
